# Blender 4.5.0
# www.blender.org
mtllib Table.mtl
o Table.001
v -0.655781 0.583976 3.223718
v 0.655781 0.583976 3.223718
v -0.655781 0.583976 3.194471
v 0.655781 0.583976 3.194471
v -0.657442 0.583976 3.181855
v 0.657442 0.583976 3.181855
v -0.662311 0.583976 3.170099
v 0.662312 0.583976 3.170099
v -0.670058 0.583976 3.160003
v 0.670058 0.583976 3.160003
v -0.680153 0.583976 3.152257
v 0.680153 0.583976 3.152257
v -0.691910 0.583976 3.147387
v 0.691910 0.583976 3.147387
v -0.704526 0.583976 3.145726
v 0.704526 0.583976 3.145726
v 0.655781 0.497386 3.223718
v -0.655781 0.497386 3.223718
v 0.655781 0.497386 3.194471
v -0.655781 0.497386 3.194471
v 0.657442 0.497386 3.181855
v -0.657442 0.497386 3.181855
v 0.662312 0.497386 3.170099
v -0.662311 0.497386 3.170099
v 0.670058 0.497386 3.160003
v -0.670058 0.497386 3.160003
v 0.680153 0.497386 3.152257
v -0.680153 0.497386 3.152257
v 0.691910 0.497386 3.147387
v -0.691910 0.497386 3.147387
v 0.704526 0.497386 3.145726
v -0.704526 0.497386 3.145726
v 0.655781 2.000000 3.194471
v 0.655781 1.805021 3.233467
v 0.655781 2.000000 3.282212
v 0.655781 1.805021 3.282212
v 0.655781 0.050208 3.233467
v 0.655781 0.050208 3.194471
v 0.657442 0.293932 3.181855
v 0.657442 0.050208 3.181855
v 0.662312 0.050208 3.170099
v 0.662312 0.293932 3.170099
v 0.670058 0.293932 3.160003
v 0.680153 0.293932 3.152257
v 0.680153 0.050208 3.152257
v 0.691910 0.050208 3.147387
v 0.670058 0.050208 3.160003
v 0.691910 0.293932 3.147387
v 0.704526 0.050208 3.145726
v -0.655781 0.050208 3.194471
v -0.655781 0.050208 3.233467
v -0.655781 1.805021 3.233467
v -0.655781 2.000000 3.194471
v -0.655781 2.000000 3.282212
v -0.655781 1.805021 3.282212
v -0.657442 0.819980 3.181855
v -0.662311 0.819980 3.170099
v -0.670058 0.819980 3.160003
v -0.670058 1.055984 3.160003
v -0.680153 1.055984 3.152257
v -0.680153 1.291988 3.152257
v -0.691910 1.291988 3.147387
v -0.691910 1.527992 3.147387
v -0.704526 2.000000 3.145726
v -0.691910 1.763996 3.147387
v -0.691910 2.000000 3.147387
v -0.680153 1.763996 3.152257
v -0.680153 2.000000 3.152257
v -0.670058 1.763996 3.160003
v -0.670058 2.000000 3.160003
v -0.662311 1.763996 3.170099
v -0.662311 2.000000 3.170099
v -0.657442 1.763996 3.181855
v -0.657442 2.000000 3.181855
v -0.657442 1.527992 3.181855
v -0.657442 1.291988 3.181855
v -0.657442 1.055984 3.181855
v -0.662311 1.291988 3.170099
v -0.662311 1.055984 3.170099
v -0.670058 1.291988 3.160003
v -0.680153 1.527992 3.152257
v -0.680153 0.819980 3.152257
v -0.691910 1.055984 3.147387
v -0.691910 0.819980 3.147387
v -0.670058 1.527992 3.160003
v -0.662311 1.527992 3.170099
v -0.704526 0.050208 3.145726
v -0.691910 0.293932 3.147387
v -0.691910 0.050208 3.147387
v -0.680153 0.050208 3.152257
v -0.680153 0.293932 3.152257
v -0.670058 0.293932 3.160003
v -0.662311 0.293932 3.170099
v -0.662311 0.050208 3.170099
v -0.657442 0.050208 3.181855
v -0.670058 0.050208 3.160003
v -0.657442 0.293932 3.181855
v -0.655781 0.583976 -3.223718
v 0.655781 0.583976 -3.223718
v -0.655781 0.497386 -3.223718
v 0.655781 0.497386 -3.223718
v 0.655781 0.583976 -3.194471
v -0.655781 0.583976 -3.194471
v 0.657442 0.583976 -3.181855
v -0.657442 0.583976 -3.181855
v 0.662311 0.583976 -3.170099
v -0.662312 0.583976 -3.170099
v 0.670058 0.583976 -3.160003
v -0.670058 0.583976 -3.160003
v 0.680153 0.583976 -3.152257
v -0.680154 0.583976 -3.152257
v 0.691910 0.583976 -3.147387
v -0.691910 0.583976 -3.147387
v 0.704526 0.583976 -3.145726
v -0.704526 0.583976 -3.145726
v -0.655781 0.497386 -3.194471
v 0.655781 0.497386 -3.194471
v -0.657442 0.497386 -3.181855
v 0.657442 0.497386 -3.181855
v -0.662312 0.497386 -3.170099
v 0.662311 0.497386 -3.170099
v -0.670058 0.497386 -3.160003
v 0.670058 0.497386 -3.160003
v -0.680154 0.497386 -3.152257
v 0.680153 0.497386 -3.152257
v -0.691910 0.497386 -3.147387
v 0.691910 0.497386 -3.147387
v -0.704526 0.497386 -3.145726
v 0.704526 0.497386 -3.145726
v -0.691910 0.819980 -3.147387
v -0.680154 0.819980 -3.152257
v -0.670058 0.819980 -3.160003
v -0.670058 1.055984 -3.160003
v -0.662312 1.055984 -3.170099
v -0.662312 1.291988 -3.170099
v -0.657442 1.291988 -3.181855
v -0.657442 1.527992 -3.181855
v -0.655781 2.000000 -3.194471
v -0.657442 1.763996 -3.181855
v -0.657442 2.000000 -3.181855
v -0.662312 1.763996 -3.170099
v -0.662312 2.000000 -3.170099
v -0.670058 1.763996 -3.160003
v -0.670058 2.000000 -3.160003
v -0.680153 1.763996 -3.152257
v -0.680153 2.000000 -3.152257
v -0.691910 1.763996 -3.147387
v -0.691910 2.000000 -3.147387
v -0.704526 2.000000 -3.145726
v -0.691910 1.527992 -3.147387
v -0.691910 1.291988 -3.147387
v -0.691910 1.055984 -3.147387
v -0.680154 1.291988 -3.152257
v -0.680154 1.055984 -3.152257
v -0.670058 1.291988 -3.160003
v -0.662312 1.527992 -3.170099
v -0.662312 0.819980 -3.170099
v -0.657442 1.055984 -3.181855
v -0.657442 0.819980 -3.181855
v -0.670058 1.527992 -3.160003
v -0.680154 1.527992 -3.152257
v -0.655781 0.050208 -3.194471
v -0.657442 0.293932 -3.181855
v -0.657442 0.050208 -3.181855
v -0.662312 0.050208 -3.170099
v -0.662312 0.293932 -3.170099
v -0.670058 0.293932 -3.160003
v -0.680154 0.293932 -3.152257
v -0.680154 0.050208 -3.152257
v -0.691910 0.050208 -3.147387
v -0.670058 0.050208 -3.160003
v -0.691910 0.293932 -3.147387
v -0.704526 0.050208 -3.145726
v -0.743522 0.050208 -3.145726
v -0.743522 1.805021 -3.145726
v 0.743521 0.050208 -3.145726
v 0.743522 1.805021 -3.145726
v 0.704526 2.000000 -3.145726
v 0.792266 2.000000 -3.145726
v 0.792266 1.805021 -3.145726
v 0.704526 0.050208 -3.145726
v -0.792267 2.000000 -3.145726
v -0.792267 1.805021 -3.145726
v 0.655781 0.050208 -3.194471
v 0.655781 0.050208 -3.233467
v 0.655781 1.805021 -3.233467
v 0.655781 2.000000 -3.194471
v 0.655781 2.000000 -3.282212
v 0.655781 1.805021 -3.282212
v 0.657442 0.819980 -3.181855
v 0.662311 0.819980 -3.170099
v 0.670058 0.819980 -3.160003
v 0.670058 1.055984 -3.160003
v 0.680153 1.055984 -3.152257
v 0.680153 1.291988 -3.152257
v 0.691910 1.291988 -3.147387
v 0.691910 1.527992 -3.147387
v 0.691910 1.763996 -3.147387
v 0.691910 2.000000 -3.147387
v 0.680153 1.763996 -3.152257
v 0.680153 2.000000 -3.152257
v 0.670058 1.763996 -3.160003
v 0.670058 2.000000 -3.160003
v 0.662311 1.763996 -3.170099
v 0.662311 2.000000 -3.170099
v 0.657442 1.763996 -3.181855
v 0.657442 2.000000 -3.181855
v 0.657442 1.527992 -3.181855
v 0.657442 1.291988 -3.181855
v 0.657442 1.055984 -3.181855
v 0.662311 1.291988 -3.170099
v 0.662311 1.055984 -3.170099
v 0.670058 1.291988 -3.160003
v 0.680153 1.527992 -3.152257
v 0.680153 0.819980 -3.152257
v 0.691910 1.055984 -3.147387
v 0.691910 0.819980 -3.147387
v 0.670058 1.527992 -3.160003
v 0.662311 1.527992 -3.170099
v 0.691909 0.293932 -3.147387
v 0.691909 0.050208 -3.147387
v 0.680153 0.050208 -3.152257
v 0.680153 0.293932 -3.152257
v 0.670058 0.293932 -3.160003
v 0.662311 0.293932 -3.170099
v 0.662311 0.050208 -3.170099
v 0.657442 0.050208 -3.181855
v 0.670058 0.050208 -3.160003
v 0.657442 0.293932 -3.181855
v 0.792266 0.050208 -3.233467
v 0.743521 0.050208 -3.282212
v 0.704526 0.050208 -3.282212
v 0.657442 0.050208 -3.246083
v 0.662311 0.050208 -3.257839
v 0.670058 0.050208 -3.267935
v 0.680153 0.050208 -3.275681
v 0.691909 0.050208 -3.280551
v 0.756137 0.050208 -3.280551
v 0.767894 0.050208 -3.275681
v 0.777989 0.050208 -3.267935
v 0.785736 0.050208 -3.257839
v 0.790605 0.050208 -3.246083
v 0.792266 0.050208 -3.194471
v 0.756137 0.050208 -3.147387
v 0.767894 0.050208 -3.152257
v 0.777989 0.050208 -3.160003
v 0.790605 0.050208 -3.181855
v 0.785736 0.050208 -3.170099
v -0.790606 0.050208 -3.181855
v -0.790606 0.293932 -3.181855
v -0.792267 0.050208 -3.194471
v -0.785736 0.293932 -3.170099
v -0.785736 0.050208 -3.170099
v -0.777990 0.293932 -3.160003
v -0.777990 0.537656 -3.160003
v -0.767894 0.537656 -3.152257
v -0.767894 0.781380 -3.152257
v -0.756138 0.781380 -3.147387
v -0.756138 1.025104 -3.147387
v -0.756138 1.268828 -3.147387
v -0.756138 1.512552 -3.147387
v -0.756138 1.756276 -3.147387
v -0.756138 1.805021 -3.147387
v -0.767894 1.756276 -3.152257
v -0.767894 1.512552 -3.152257
v -0.777990 1.512552 -3.160003
v -0.777990 1.268828 -3.160003
v -0.785736 1.268828 -3.170099
v -0.785736 1.025104 -3.170099
v -0.790606 1.025104 -3.181855
v -0.790606 0.781380 -3.181855
v -0.790606 0.537656 -3.181855
v -0.785736 0.537656 -3.170099
v -0.777990 0.781380 -3.160003
v -0.777990 0.050208 -3.160003
v -0.767894 0.293932 -3.152257
v -0.756138 0.537656 -3.147387
v -0.767894 0.050208 -3.152257
v -0.756138 0.293932 -3.147387
v -0.756138 0.050208 -3.147387
v -0.767894 1.805021 -3.152257
v -0.777990 1.756276 -3.160003
v -0.785736 1.512552 -3.170099
v -0.790606 1.268828 -3.181855
v -0.792267 1.805021 -3.194471
v -0.777990 1.805021 -3.160003
v -0.785736 1.756276 -3.170099
v -0.790606 1.512552 -3.181855
v -0.785736 1.805021 -3.170099
v -0.790606 1.756276 -3.181855
v -0.790606 1.805021 -3.181855
v -0.785736 0.781380 -3.170099
v -0.777990 1.025104 -3.160003
v -0.767894 1.025104 -3.152257
v -0.767894 1.268828 -3.152257
v -0.792267 0.050208 -3.233467
v -0.655781 0.050208 -3.233467
v -0.704526 0.050208 -3.282212
v -0.743522 0.050208 -3.282212
v -0.790606 0.050208 -3.246083
v -0.785736 0.050208 -3.257839
v -0.777990 0.050208 -3.267935
v -0.767894 0.050208 -3.275681
v -0.756138 0.050208 -3.280551
v -0.691910 0.050208 -3.280551
v -0.680154 0.050208 -3.275681
v -0.670058 0.050208 -3.267935
v -0.662312 0.050208 -3.257839
v -0.657442 0.050208 -3.246083
v -0.790605 0.050208 3.246083
v -0.790605 0.293932 3.246083
v -0.792266 0.050208 3.233467
v -0.785736 0.293932 3.257839
v -0.785736 0.050208 3.257839
v -0.777989 0.293932 3.267935
v -0.777989 0.537656 3.267935
v -0.767894 0.537656 3.275681
v -0.767894 0.781380 3.275681
v -0.756138 0.781380 3.280551
v -0.756138 1.025104 3.280551
v -0.743522 0.050208 3.282212
v -0.743522 1.805021 3.282212
v -0.756138 1.268828 3.280551
v -0.756138 1.512552 3.280551
v -0.756138 1.756276 3.280551
v -0.756138 1.805021 3.280551
v -0.767894 1.756276 3.275681
v -0.767894 1.512552 3.275681
v -0.777989 1.512552 3.267935
v -0.777989 1.268828 3.267935
v -0.785736 1.268828 3.257839
v -0.785736 1.025104 3.257839
v -0.790605 1.025104 3.246083
v -0.790605 0.781380 3.246083
v -0.790605 0.537656 3.246083
v -0.785736 0.537656 3.257839
v -0.777989 0.781380 3.267935
v -0.777989 0.050208 3.267935
v -0.767894 0.293932 3.275681
v -0.756138 0.537656 3.280551
v -0.767894 0.050208 3.275681
v -0.756138 0.293932 3.280551
v -0.756138 0.050208 3.280551
v -0.767894 1.805021 3.275681
v -0.777989 1.756276 3.267935
v -0.785736 1.512552 3.257839
v -0.790605 1.268828 3.246083
v -0.792266 1.805021 3.233467
v -0.777989 1.805021 3.267935
v -0.785736 1.756276 3.257839
v -0.790605 1.512552 3.246083
v -0.785736 1.805021 3.257839
v -0.790605 1.756276 3.246083
v -0.790605 1.805021 3.246083
v -0.785736 0.781380 3.257839
v -0.777989 1.025104 3.267935
v -0.767894 1.025104 3.275681
v -0.767894 1.268828 3.275681
v -0.704526 1.805021 3.282212
v -0.704526 0.050208 3.282212
v -0.792266 0.050208 3.194471
v -0.743522 0.050208 3.145726
v -0.790605 0.050208 3.181855
v -0.785736 0.050208 3.170099
v -0.777989 0.050208 3.160003
v -0.767894 0.050208 3.152257
v -0.756138 0.050208 3.147387
v -0.691910 0.050208 3.280551
v -0.680153 0.050208 3.275681
v -0.670058 0.050208 3.267935
v -0.657442 0.050208 3.246083
v -0.662311 0.050208 3.257839
v 0.756138 0.050208 3.280551
v 0.756138 0.293932 3.280551
v 0.743522 0.050208 3.282212
v 0.767894 0.293932 3.275681
v 0.767894 0.050208 3.275681
v 0.777990 0.293932 3.267935
v 0.777990 0.537656 3.267935
v 0.785736 0.537656 3.257839
v 0.785736 0.781380 3.257839
v 0.790606 0.781380 3.246083
v 0.790606 1.025104 3.246083
v 0.792266 0.050208 3.233467
v 0.792267 1.805021 3.233467
v 0.790606 1.268828 3.246083
v 0.790606 1.512552 3.246083
v 0.790606 1.756276 3.246083
v 0.790606 1.805021 3.246083
v 0.785736 1.756276 3.257839
v 0.785736 1.512552 3.257839
v 0.777990 1.512552 3.267935
v 0.777990 1.268828 3.267935
v 0.767894 1.268828 3.275681
v 0.767894 1.025104 3.275681
v 0.756138 1.025104 3.280551
v 0.756138 0.781380 3.280551
v 0.756138 0.537656 3.280551
v 0.767894 0.537656 3.275681
v 0.777990 0.781380 3.267935
v 0.777990 0.050208 3.267935
v 0.785736 0.293932 3.257839
v 0.790606 0.537656 3.246083
v 0.785736 0.050208 3.257839
v 0.790606 0.293932 3.246083
v 0.790606 0.050208 3.246083
v 0.785736 1.805021 3.257839
v 0.777990 1.756276 3.267935
v 0.767894 1.512552 3.275681
v 0.756138 1.268828 3.280551
v 0.743522 1.805021 3.282212
v 0.777990 1.805021 3.267935
v 0.767894 1.756276 3.275681
v 0.756138 1.512552 3.280551
v 0.767894 1.805021 3.275681
v 0.756138 1.756276 3.280551
v 0.756138 1.805021 3.280551
v 0.767894 0.781380 3.275681
v 0.777990 1.025104 3.267935
v 0.785736 1.025104 3.257839
v 0.785736 1.268828 3.257839
v 0.704526 0.050208 3.282212
v 0.792266 0.050208 3.194471
v 0.743522 0.050208 3.145726
v 0.790606 0.050208 3.181855
v 0.785736 0.050208 3.170099
v 0.777990 0.050208 3.160003
v 0.767894 0.050208 3.152257
v 0.756138 0.050208 3.147387
v 0.691910 0.050208 3.280551
v 0.680153 0.050208 3.275681
v 0.657442 0.050208 3.246083
v 0.662312 0.050208 3.257839
v 0.670058 0.050208 3.267935
v 0.704526 1.805021 3.282212
v -0.756138 0.293932 -3.280551
v -0.767894 0.293932 -3.275681
v -0.777990 0.293932 -3.267935
v -0.777990 0.537656 -3.267935
v -0.785736 0.537656 -3.257839
v -0.785736 0.781380 -3.257839
v -0.790606 0.781380 -3.246083
v -0.790606 1.025104 -3.246083
v -0.792267 1.805021 -3.233467
v -0.790606 1.268828 -3.246083
v -0.790606 1.512552 -3.246083
v -0.790606 1.756276 -3.246083
v -0.790606 1.805021 -3.246083
v -0.785736 1.756276 -3.257839
v -0.785736 1.512552 -3.257839
v -0.777990 1.512552 -3.267935
v -0.777990 1.268828 -3.267935
v -0.767894 1.268828 -3.275681
v -0.767894 1.025104 -3.275681
v -0.756138 1.025104 -3.280551
v -0.756138 0.781380 -3.280551
v -0.756138 0.537656 -3.280551
v -0.767894 0.537656 -3.275681
v -0.777990 0.781380 -3.267935
v -0.785736 0.293932 -3.257839
v -0.790606 0.537656 -3.246083
v -0.790606 0.293932 -3.246083
v -0.785736 1.805021 -3.257839
v -0.777990 1.756276 -3.267935
v -0.767894 1.512552 -3.275681
v -0.756138 1.268828 -3.280551
v -0.743522 1.805021 -3.282212
v -0.777990 1.805021 -3.267935
v -0.767894 1.756276 -3.275681
v -0.756138 1.512552 -3.280551
v -0.767894 1.805021 -3.275681
v -0.756138 1.756276 -3.280551
v -0.756138 1.805021 -3.280551
v -0.767894 0.781380 -3.275681
v -0.777990 1.025104 -3.267935
v -0.785736 1.025104 -3.257839
v -0.785736 1.268828 -3.257839
v -0.704526 1.805021 -3.282212
v 0.790605 0.293932 -3.246083
v 0.785736 0.293932 -3.257839
v 0.777989 0.293932 -3.267935
v 0.777989 0.537656 -3.267935
v 0.767894 0.537656 -3.275681
v 0.767894 0.781380 -3.275681
v 0.756137 0.781380 -3.280551
v 0.756137 1.025104 -3.280551
v 0.743521 1.805021 -3.282212
v 0.756137 1.268828 -3.280551
v 0.756137 1.512552 -3.280551
v 0.756137 1.756276 -3.280551
v 0.756137 1.805021 -3.280551
v 0.767894 1.756276 -3.275681
v 0.767894 1.512552 -3.275681
v 0.777989 1.512552 -3.267935
v 0.777989 1.268828 -3.267935
v 0.785736 1.268828 -3.257839
v 0.785736 1.025104 -3.257839
v 0.790605 1.025104 -3.246083
v 0.790605 0.781380 -3.246083
v 0.790605 0.537656 -3.246083
v 0.785736 0.537656 -3.257839
v 0.777989 0.781380 -3.267935
v 0.767894 0.293932 -3.275681
v 0.756137 0.537656 -3.280551
v 0.756137 0.293932 -3.280551
v 0.767894 1.805021 -3.275681
v 0.777989 1.756276 -3.267935
v 0.785736 1.512552 -3.257839
v 0.790605 1.268828 -3.246083
v 0.792266 1.805021 -3.233467
v 0.777989 1.805021 -3.267935
v 0.785736 1.756276 -3.257839
v 0.790605 1.512552 -3.246083
v 0.785736 1.805021 -3.257839
v 0.790605 1.756276 -3.246083
v 0.790605 1.805021 -3.246083
v 0.785736 0.781380 -3.257839
v 0.777989 1.025104 -3.267935
v 0.767894 1.025104 -3.275681
v 0.767894 1.268828 -3.275681
v 0.792266 1.805021 -3.194471
v 0.657442 0.293932 3.246083
v 0.662312 0.293932 3.257839
v 0.670058 0.293932 3.267935
v 0.670058 0.537656 3.267935
v 0.680153 0.537656 3.275681
v 0.680153 0.781380 3.275681
v 0.691910 0.781380 3.280551
v 0.691910 1.025104 3.280551
v 0.691910 1.268828 3.280551
v 0.691910 1.512552 3.280551
v 0.691910 1.756276 3.280551
v 0.691910 1.805021 3.280551
v 0.680153 1.756276 3.275681
v 0.680153 1.512552 3.275681
v 0.670058 1.512552 3.267935
v 0.670058 1.268828 3.267935
v 0.662312 1.268828 3.257839
v 0.662312 1.025104 3.257839
v 0.657442 1.025104 3.246083
v 0.657442 0.781380 3.246083
v 0.657442 0.537656 3.246083
v 0.662312 0.537656 3.257839
v 0.670058 0.781380 3.267935
v 0.680153 0.293932 3.275681
v 0.691910 0.537656 3.280551
v 0.691910 0.293932 3.280551
v 0.680153 1.805021 3.275681
v 0.670058 1.756276 3.267935
v 0.662312 1.512552 3.257839
v 0.657442 1.268828 3.246083
v 0.670058 1.805021 3.267935
v 0.662312 1.756276 3.257839
v 0.657442 1.512552 3.246083
v 0.662312 1.805021 3.257839
v 0.657442 1.756276 3.246083
v 0.657442 1.805021 3.246083
v 0.662312 0.781380 3.257839
v 0.670058 1.025104 3.267935
v 0.680153 1.025104 3.275681
v 0.680153 1.268828 3.275681
v 0.790606 0.293932 3.181855
v 0.785736 0.293932 3.170099
v 0.777990 0.293932 3.160003
v 0.777990 0.537656 3.160003
v 0.767894 0.537656 3.152257
v 0.767894 0.781380 3.152257
v 0.756138 0.781380 3.147387
v 0.756138 1.025104 3.147387
v 0.743522 1.805021 3.145726
v 0.756138 1.268828 3.147387
v 0.756138 1.512552 3.147387
v 0.756138 1.756276 3.147387
v 0.756138 1.805021 3.147387
v 0.767894 1.756276 3.152257
v 0.767894 1.512552 3.152257
v 0.777990 1.512552 3.160003
v 0.777990 1.268828 3.160003
v 0.785736 1.268828 3.170099
v 0.785736 1.025104 3.170099
v 0.790606 1.025104 3.181855
v 0.790606 0.781380 3.181855
v 0.790606 0.537656 3.181855
v 0.785736 0.537656 3.170099
v 0.777990 0.781380 3.160003
v 0.767894 0.293932 3.152257
v 0.756138 0.537656 3.147387
v 0.756138 0.293932 3.147387
v 0.767894 1.805021 3.152257
v 0.777990 1.756276 3.160003
v 0.785736 1.512552 3.170099
v 0.790606 1.268828 3.181855
v 0.792267 1.805021 3.194471
v 0.777990 1.805021 3.160003
v 0.785736 1.756276 3.170099
v 0.790606 1.512552 3.181855
v 0.785736 1.805021 3.170099
v 0.790606 1.756276 3.181855
v 0.790606 1.805021 3.181855
v 0.785736 0.781380 3.170099
v 0.777990 1.025104 3.160003
v 0.767894 1.025104 3.152257
v 0.767894 1.268828 3.152257
v 0.704526 2.000000 3.145726
v 0.792267 2.000000 3.145726
v 0.792267 1.805021 3.145726
v -0.743522 1.805021 3.145726
v -0.792266 2.000000 3.145726
v -0.792266 1.805021 3.145726
v -0.691910 0.293932 3.280551
v -0.680153 0.293932 3.275681
v -0.670058 0.293932 3.267935
v -0.670058 0.537656 3.267935
v -0.662311 0.537656 3.257839
v -0.662311 0.781380 3.257839
v -0.657442 0.781380 3.246083
v -0.657442 1.025104 3.246083
v -0.657442 1.268828 3.246083
v -0.657442 1.512552 3.246083
v -0.657442 1.756276 3.246083
v -0.657442 1.805021 3.246083
v -0.662311 1.756276 3.257839
v -0.662311 1.512552 3.257839
v -0.670058 1.512552 3.267935
v -0.670058 1.268828 3.267935
v -0.680153 1.268828 3.275681
v -0.680153 1.025104 3.275681
v -0.691910 1.025104 3.280551
v -0.691910 0.781380 3.280551
v -0.691910 0.537656 3.280551
v -0.680153 0.537656 3.275681
v -0.670058 0.781380 3.267935
v -0.662311 0.293932 3.257839
v -0.657442 0.537656 3.246083
v -0.657442 0.293932 3.246083
v -0.662311 1.805021 3.257839
v -0.670058 1.756276 3.267935
v -0.680153 1.512552 3.275681
v -0.691910 1.268828 3.280551
v -0.670058 1.805021 3.267935
v -0.680153 1.756276 3.275681
v -0.691910 1.512552 3.280551
v -0.680153 1.805021 3.275681
v -0.691910 1.756276 3.280551
v -0.691910 1.805021 3.280551
v -0.680153 0.781380 3.275681
v -0.670058 1.025104 3.267935
v -0.662311 1.025104 3.257839
v -0.662311 1.268828 3.257839
v -0.756138 0.293932 3.147387
v -0.767894 0.293932 3.152257
v -0.777989 0.293932 3.160003
v -0.777989 0.537656 3.160003
v -0.785736 0.537656 3.170099
v -0.785736 0.781380 3.170099
v -0.790605 0.781380 3.181855
v -0.790605 1.025104 3.181855
v -0.792266 1.805021 3.194471
v -0.790605 1.268828 3.181855
v -0.790605 1.512552 3.181855
v -0.790605 1.756276 3.181855
v -0.790605 1.805021 3.181855
v -0.785736 1.756276 3.170099
v -0.785736 1.512552 3.170099
v -0.777989 1.512552 3.160003
v -0.777989 1.268828 3.160003
v -0.767894 1.268828 3.152257
v -0.767894 1.025104 3.152257
v -0.756138 1.025104 3.147387
v -0.756138 0.781380 3.147387
v -0.756138 0.537656 3.147387
v -0.767894 0.537656 3.152257
v -0.777989 0.781380 3.160003
v -0.785736 0.293932 3.170099
v -0.790605 0.537656 3.181855
v -0.790605 0.293932 3.181855
v -0.785736 1.805021 3.170099
v -0.777989 1.756276 3.160003
v -0.767894 1.512552 3.152257
v -0.756138 1.268828 3.147387
v -0.777989 1.805021 3.160003
v -0.767894 1.756276 3.152257
v -0.756138 1.512552 3.147387
v -0.767894 1.805021 3.152257
v -0.756138 1.756276 3.147387
v -0.756138 1.805021 3.147387
v -0.767894 0.781380 3.152257
v -0.777989 1.025104 3.160003
v -0.785736 1.025104 3.170099
v -0.785736 1.268828 3.170099
v -0.657442 0.293932 -3.246083
v -0.662312 0.293932 -3.257839
v -0.670058 0.293932 -3.267935
v -0.670058 0.537656 -3.267935
v -0.680154 0.537656 -3.275681
v -0.680154 0.781380 -3.275681
v -0.691910 0.781380 -3.280551
v -0.691910 1.025104 -3.280551
v -0.691910 1.268828 -3.280551
v -0.691910 1.512552 -3.280551
v -0.691910 1.756276 -3.280551
v -0.691910 1.805021 -3.280551
v -0.680154 1.756276 -3.275681
v -0.680154 1.512552 -3.275681
v -0.670058 1.512552 -3.267935
v -0.670058 1.268828 -3.267935
v -0.662312 1.268828 -3.257839
v -0.662312 1.025104 -3.257839
v -0.657442 1.025104 -3.246083
v -0.657442 0.781380 -3.246083
v -0.657442 0.537656 -3.246083
v -0.662312 0.537656 -3.257839
v -0.670058 0.781380 -3.267935
v -0.680154 0.293932 -3.275681
v -0.691910 0.537656 -3.280551
v -0.691910 0.293932 -3.280551
v -0.680154 1.805021 -3.275681
v -0.670058 1.756276 -3.267935
v -0.662312 1.512552 -3.257839
v -0.657442 1.268828 -3.246083
v -0.655781 1.805021 -3.233467
v -0.670058 1.805021 -3.267935
v -0.662312 1.756276 -3.257839
v -0.657442 1.512552 -3.246083
v -0.662312 1.805021 -3.257839
v -0.657442 1.756276 -3.246083
v -0.657442 1.805021 -3.246083
v -0.662312 0.781380 -3.257839
v -0.670058 1.025104 -3.267935
v -0.680154 1.025104 -3.275681
v -0.680154 1.268828 -3.275681
v 0.756137 0.293932 -3.147387
v 0.767894 0.293932 -3.152257
v 0.777989 0.293932 -3.160003
v 0.777989 0.537656 -3.160003
v 0.785736 0.537656 -3.170099
v 0.785736 0.781380 -3.170099
v 0.790605 0.781380 -3.181855
v 0.790605 1.025104 -3.181855
v 0.790605 1.268828 -3.181855
v 0.790605 1.512552 -3.181855
v 0.790605 1.756276 -3.181855
v 0.790605 1.805021 -3.181855
v 0.785736 1.756276 -3.170099
v 0.785736 1.512552 -3.170099
v 0.777989 1.512552 -3.160003
v 0.777989 1.268828 -3.160003
v 0.767894 1.268828 -3.152257
v 0.767894 1.025104 -3.152257
v 0.756137 1.025104 -3.147387
v 0.756137 0.781380 -3.147387
v 0.756137 0.537656 -3.147387
v 0.767894 0.537656 -3.152257
v 0.777989 0.781380 -3.160003
v 0.785736 0.293932 -3.170099
v 0.790605 0.537656 -3.181855
v 0.790605 0.293932 -3.181855
v 0.785736 1.805021 -3.170099
v 0.777989 1.756276 -3.160003
v 0.767894 1.512552 -3.152257
v 0.756137 1.268828 -3.147387
v 0.777989 1.805021 -3.160003
v 0.767894 1.756276 -3.152257
v 0.756137 1.512552 -3.147387
v 0.767894 1.805021 -3.152257
v 0.756138 1.756276 -3.147387
v 0.756138 1.805021 -3.147387
v 0.767894 0.781380 -3.152257
v 0.777989 1.025104 -3.160003
v 0.785736 1.025104 -3.170099
v 0.785736 1.268828 -3.170099
v 0.691909 0.293932 -3.280551
v 0.680153 0.293932 -3.275681
v 0.670058 0.293932 -3.267935
v 0.670058 0.537656 -3.267935
v 0.662311 0.537656 -3.257839
v 0.662311 0.781380 -3.257839
v 0.657442 0.781380 -3.246083
v 0.657442 1.025104 -3.246083
v 0.657442 1.268828 -3.246083
v 0.657442 1.512552 -3.246083
v 0.657442 1.756276 -3.246083
v 0.657442 1.805021 -3.246083
v 0.662311 1.756276 -3.257839
v 0.662311 1.512552 -3.257839
v 0.670058 1.512552 -3.267935
v 0.670058 1.268828 -3.267935
v 0.680153 1.268828 -3.275681
v 0.680153 1.025104 -3.275681
v 0.691910 1.025104 -3.280551
v 0.691910 0.781380 -3.280551
v 0.691910 0.537656 -3.280551
v 0.680153 0.537656 -3.275681
v 0.670058 0.781380 -3.267935
v 0.662311 0.293932 -3.257839
v 0.657442 0.537656 -3.246083
v 0.657442 0.293932 -3.246083
v 0.662311 1.805021 -3.257839
v 0.670058 1.756276 -3.267935
v 0.680153 1.512552 -3.275681
v 0.691910 1.268828 -3.280551
v 0.704526 1.805021 -3.282212
v 0.670058 1.805021 -3.267935
v 0.680153 1.756276 -3.275681
v 0.691910 1.512552 -3.280551
v 0.680153 1.805021 -3.275681
v 0.691910 1.756276 -3.280551
v 0.691910 1.805021 -3.280551
v 0.680153 0.781380 -3.275681
v 0.670058 1.025104 -3.267935
v 0.662311 1.025104 -3.257839
v 0.662311 1.268828 -3.257839
v 0.691910 0.819980 3.147387
v 0.680153 0.819980 3.152257
v 0.670058 0.819980 3.160003
v 0.670058 1.055984 3.160003
v 0.662312 1.055984 3.170099
v 0.662312 1.291988 3.170099
v 0.657442 1.291988 3.181855
v 0.657442 1.527992 3.181855
v 0.657442 1.763996 3.181855
v 0.657442 2.000000 3.181855
v 0.662312 1.763996 3.170099
v 0.662312 2.000000 3.170099
v 0.670058 1.763996 3.160003
v 0.670058 2.000000 3.160003
v 0.680153 1.763996 3.152257
v 0.680153 2.000000 3.152257
v 0.691910 1.763996 3.147387
v 0.691910 2.000000 3.147387
v 0.691910 1.527992 3.147387
v 0.691910 1.291988 3.147387
v 0.691910 1.055984 3.147387
v 0.680153 1.291988 3.152257
v 0.680153 1.055984 3.152257
v 0.670058 1.291988 3.160003
v 0.662312 1.527992 3.170099
v 0.662312 0.819980 3.170099
v 0.657442 1.055984 3.181855
v 0.657442 0.819980 3.181855
v 0.670058 1.527992 3.160003
v 0.680153 1.527992 3.152257
v -0.972386 2.000000 -3.413586
v -0.972386 2.077992 -3.413586
v -0.970725 2.000000 -3.426202
v -0.970725 2.077992 -3.426202
v -0.965855 2.000000 -3.437958
v -0.965855 2.077992 -3.437958
v -0.958109 2.000000 -3.448054
v -0.958109 2.077992 -3.448054
v -0.948013 2.000000 -3.455800
v -0.948013 2.077992 -3.455800
v -0.936257 2.000000 -3.460670
v -0.936257 2.077992 -3.460670
v -0.923641 2.000000 -3.462331
v -0.923641 2.077992 -3.462331
v -0.873964 2.000000 -3.315164
v -0.972386 2.000000 3.413586
v -0.873964 2.000000 3.315164
v -0.936257 2.000000 3.460670
v -0.923641 2.000000 3.462331
v -0.948013 2.000000 3.455800
v -0.958109 2.000000 3.448054
v -0.965855 2.000000 3.437958
v -0.970725 2.000000 3.426202
v -0.872303 2.000000 -3.327781
v -0.867434 2.000000 -3.339537
v -0.859687 2.000000 -3.349632
v -0.849592 2.000000 -3.357379
v -0.837835 2.000000 -3.362248
v -0.825219 2.000000 -3.363909
v 0.923641 2.000000 -3.462331
v 0.825219 2.000000 -3.363909
v 0.837835 2.000000 -3.362248
v 0.936257 2.000000 -3.460670
v 0.873964 2.000000 -3.315164
v 0.972386 2.000000 -3.413586
v 0.948013 2.000000 -3.455800
v 0.958109 2.000000 -3.448054
v 0.965855 2.000000 -3.437958
v 0.970725 2.000000 -3.426202
v 0.972386 2.000000 3.413586
v 0.873964 2.000000 3.315164
v 0.936257 2.000000 3.460670
v 0.923641 2.000000 3.462331
v 0.872303 2.000000 3.327781
v 0.867434 2.000000 3.339537
v 0.859687 2.000000 3.349632
v 0.849592 2.000000 3.357379
v 0.837835 2.000000 3.362248
v 0.825219 2.000000 3.363909
v -0.825219 2.000000 3.363909
v -0.837835 2.000000 3.362248
v -0.849592 2.000000 3.357379
v -0.859687 2.000000 3.349632
v -0.867433 2.000000 3.339537
v -0.872303 2.000000 3.327781
v 0.970725 2.000000 3.426202
v 0.965855 2.000000 3.437958
v 0.958109 2.000000 3.448054
v 0.948013 2.000000 3.455800
v 0.872303 2.000000 -3.327781
v 0.867433 2.000000 -3.339537
v 0.859687 2.000000 -3.349632
v 0.849592 2.000000 -3.357379
v 0.923641 2.077992 -3.462331
v 0.936257 2.077992 -3.460670
v 0.948013 2.077992 -3.455800
v 0.958109 2.077992 -3.448054
v 0.965855 2.077992 -3.437958
v 0.970725 2.077992 -3.426202
v 0.972386 2.077992 -3.413586
v 0.972386 2.077992 3.413586
v 0.970725 2.077992 3.426202
v 0.965855 2.077992 3.437958
v 0.958109 2.077992 3.448054
v 0.948013 2.077992 3.455800
v 0.936257 2.077992 3.460670
v 0.923641 2.077992 3.462331
v -0.923641 2.077992 3.462331
v -0.936257 2.077992 3.460670
v -0.948013 2.077992 3.455800
v -0.958109 2.077992 3.448054
v -0.965855 2.077992 3.437958
v -0.970725 2.077992 3.426202
v -0.972386 2.077992 3.413586
v -0.873964 1.805021 3.315164
v -0.872303 1.805021 3.327781
v -0.867433 1.805021 3.339537
v -0.859687 1.805021 3.349632
v -0.849592 1.805021 3.357379
v -0.837835 1.805021 3.362248
v -0.825219 1.805021 3.363909
v 0.825219 1.805021 3.363909
v 0.837835 1.805021 3.362248
v 0.849592 1.805021 3.357379
v 0.873964 1.805021 3.315164
v 0.859687 1.805021 3.349632
v 0.867434 1.805021 3.339537
v 0.873964 1.805021 -3.315164
v 0.837835 1.805021 -3.362248
v 0.825219 1.805021 -3.363909
v -0.655781 1.805021 -3.282212
v -0.825219 1.805021 -3.363909
v -0.837836 1.805021 -3.362248
v -0.849592 1.805021 -3.357379
v -0.873964 1.805021 -3.315164
v -0.859687 1.805021 -3.349632
v -0.867434 1.805021 -3.339537
v -0.872303 1.805021 -3.327781
v 0.849592 1.805021 -3.357379
v 0.859687 1.805021 -3.349632
v 0.867433 1.805021 -3.339537
v 0.872303 1.805021 -3.327781
v 0.872303 1.805021 3.327781
v -0.655781 2.000000 -3.282212
vn -0.0000 1.0000 -0.0000
vn -0.0000 -1.0000 -0.0000
vn -0.0000 -0.0000 1.0000
vn -1.0000 -0.0000 -0.0000
vn -0.9914 -0.0000 -0.1305
vn -0.9239 -0.0000 -0.3827
vn -0.7934 -0.0000 -0.6088
vn -0.7933 -0.0000 -0.6088
vn -0.6088 -0.0000 -0.7934
vn -0.3827 -0.0000 -0.9239
vn -0.1305 -0.0000 -0.9914
vn 1.0000 -0.0000 -0.0000
vn 0.9914 -0.0000 -0.1305
vn 0.9239 -0.0000 -0.3827
vn 0.7933 -0.0000 -0.6088
vn 0.6088 -0.0000 -0.7934
vn 0.3827 -0.0000 -0.9239
vn 0.1305 -0.0000 -0.9914
vn 0.7934 -0.0000 -0.6088
vn -0.0000 -0.0000 -1.0000
vn 0.1305 -0.0000 0.9914
vn 0.3827 -0.0000 0.9239
vn 0.6088 -0.0000 0.7934
vn 0.7933 -0.0000 0.6088
vn 0.9239 -0.0000 0.3827
vn 0.9914 -0.0000 0.1305
vn 0.7934 -0.0000 0.6088
vn -0.9914 -0.0000 0.1305
vn -0.9239 -0.0000 0.3827
vn -0.7934 -0.0000 0.6088
vn -0.6088 -0.0000 0.7934
vn -0.3827 -0.0000 0.9239
vn -0.1305 -0.0000 0.9914
vn -0.7933 -0.0000 0.6088
vn -0.6088 -0.0000 0.7933
vn 0.6088 -0.0000 0.7933
vn -0.6088 -0.0000 -0.7933
vn 0.6088 -0.0000 -0.7933
s 0
usemtl Table_Top
f 187//28 206//28 207//28
f 843//5 844//5 845//5
f 845//5 844//5 846//5
f 847//6 846//6 848//6
f 849//7 848//7 850//7
f 851//9 850//9 852//9
f 853//10 852//10 854//10
f 855//11 854//11 856//11
f 855//11 853//11 854//11
f 845//6 846//6 847//6
f 847//8 848//8 849//8
f 849//9 850//9 851//9
f 851//10 852//10 853//10
f 845//2 847//2 843//2
f 843//2 847//2 849//2
f 851//2 843//2 849//2
f 851//2 853//2 843//2
f 843//2 853//2 857//2
f 858//2 857//2 859//2
f 860//2 859//2 861//2
f 860//2 858//2 859//2
f 860//2 862//2 858//2
f 858//2 862//2 863//2
f 864//2 858//2 863//2
f 864//2 865//2 858//2
f 853//2 855//2 857//2
f 857//2 855//2 866//2
f 866//2 855//2 867//2
f 867//2 855//2 868//2
f 868//2 855//2 869//2
f 869//2 855//2 870//2
f 870//2 855//2 871//2
f 871//2 855//2 872//2
f 873//2 872//2 874//2
f 873//2 871//2 872//2
f 875//2 876//2 872//2
f 875//2 877//2 876//2
f 875//2 878//2 877//2
f 877//2 878//2 879//2
f 880//2 877//2 879//2
f 880//2 881//2 877//2
f 877//2 882//2 876//2
f 876//2 882//2 883//2
f 883//2 882//2 884//2
f 885//2 883//2 884//2
f 885//2 886//2 883//2
f 885//2 887//2 886//2
f 885//2 888//2 887//2
f 885//2 889//2 888//2
f 885//2 890//2 889//2
f 885//2 891//2 890//2
f 885//2 861//2 891//2
f 891//2 861//2 892//2
f 892//2 861//2 893//2
f 893//2 861//2 894//2
f 894//2 861//2 895//2
f 895//2 861//2 896//2
f 896//2 861//2 897//2
f 897//2 861//2 859//2
f 898//2 899//2 882//2
f 882//2 899//2 900//2
f 901//2 882//2 900//2
f 901//2 884//2 882//2
f 858//2 843//2 857//2
f 876//2 902//2 872//2
f 872//2 902//2 903//2
f 904//2 872//2 903//2
f 904//2 905//2 872//2
f 872//2 905//2 874//2
f 856//20 906//20 855//20
f 855//20 906//20 872//20
f 872//18 906//18 875//18
f 875//18 906//18 907//18
f 878//17 907//17 908//17
f 879//16 908//16 909//16
f 880//15 909//15 910//15
f 881//14 910//14 911//14
f 877//13 911//13 912//13
f 877//13 881//13 911//13
f 875//17 907//17 878//17
f 878//16 908//16 879//16
f 879//19 909//19 880//19
f 880//14 910//14 881//14
f 882//26 913//26 898//26
f 898//26 913//26 914//26
f 899//25 914//25 915//25
f 900//27 915//27 916//27
f 901//23 916//23 917//23
f 884//22 917//22 918//22
f 885//21 918//21 919//21
f 885//21 884//21 918//21
f 898//25 914//25 899//25
f 899//24 915//24 900//24
f 900//23 916//23 901//23
f 901//22 917//22 884//22
f 919//3 920//3 885//3
f 885//3 920//3 861//3
f 861//33 920//33 860//33
f 860//33 920//33 921//33
f 862//32 921//32 922//32
f 863//31 922//31 923//31
f 864//34 923//34 924//34
f 865//29 924//29 925//29
f 858//28 925//28 926//28
f 858//28 865//28 925//28
f 860//32 921//32 862//32
f 862//31 922//31 863//31
f 863//30 923//30 864//30
f 864//29 924//29 865//29
f 180//2 743//2 521//2
f 180//2 758//2 743//2
f 180//2 762//2 758//2
f 180//2 765//2 762//2
f 180//2 767//2 765//2
f 180//2 177//2 767//2
f 189//2 808//2 806//2
f 803//2 189//2 806//2
f 803//2 798//2 189//2
f 189//2 798//2 783//2
f 186//2 189//2 783//2
f 943//2 717//2 702//2
f 943//2 722//2 717//2
f 943//2 725//2 722//2
f 943//2 727//2 725//2
f 943//2 721//2 727//2
f 948//2 947//2 949//2
f 285//2 291//2 183//2
f 183//2 291//2 289//2
f 286//2 183//2 289//2
f 286//2 281//2 183//2
f 175//2 183//2 263//2
f 931//2 930//2 927//2
f 927//2 930//2 929//2
f 928//2 927//2 929//2
f 947//2 950//2 949//2
f 953//2 940//2 952//2
f 953//2 954//2 940//2
f 937//2 955//2 939//2
f 53//2 822//2 33//2
f 74//2 822//2 53//2
f 912//12 913//12 877//12
f 877//12 913//12 882//12
f 843//4 858//4 844//4
f 844//4 858//4 926//4
f 854//1 844//1 856//1
f 854//1 852//1 844//1
f 844//1 852//1 850//1
f 848//1 844//1 850//1
f 848//1 846//1 844//1
f 844//1 926//1 856//1
f 856//1 926//1 920//1
f 919//1 856//1 920//1
f 919//1 906//1 856//1
f 919//1 913//1 906//1
f 919//1 918//1 913//1
f 913//1 918//1 917//1
f 916//1 913//1 917//1
f 916//1 915//1 913//1
f 913//1 915//1 914//1
f 925//1 924//1 926//1
f 926//1 924//1 923//1
f 922//1 926//1 923//1
f 922//1 921//1 926//1
f 926//1 921//1 920//1
f 913//1 912//1 906//1
f 906//1 912//1 907//1
f 907//1 912//1 908//1
f 908//1 912//1 909//1
f 909//1 912//1 910//1
f 910//1 912//1 911//1
usemtl Table_Frame
f 1//1 2//1 3//1
f 3//1 2//1 4//1
f 5//1 4//1 6//1
f 7//1 6//1 8//1
f 9//1 8//1 10//1
f 11//1 10//1 12//1
f 13//1 12//1 14//1
f 15//1 14//1 16//1
f 15//1 13//1 14//1
f 3//1 4//1 5//1
f 5//1 6//1 7//1
f 7//1 8//1 9//1
f 9//1 10//1 11//1
f 11//1 12//1 13//1
f 17//2 18//2 19//2
f 19//2 18//2 20//2
f 21//2 20//2 22//2
f 23//2 22//2 24//2
f 25//2 24//2 26//2
f 27//2 26//2 28//2
f 29//2 28//2 30//2
f 31//2 30//2 32//2
f 31//2 29//2 30//2
f 19//2 20//2 21//2
f 21//2 22//2 23//2
f 23//2 24//2 25//2
f 25//2 26//2 27//2
f 27//2 28//2 29//2
f 2//3 1//3 17//3
f 17//3 1//3 18//3
f 4//4 2//4 33//4
f 33//4 2//4 34//4
f 35//4 34//4 36//4
f 35//4 33//4 34//4
f 34//4 2//4 37//4
f 37//4 2//4 17//4
f 38//4 17//4 19//4
f 38//4 37//4 17//4
f 38//5 19//5 39//5
f 40//6 39//6 41//6
f 40//5 38//5 39//5
f 23//6 42//6 21//6
f 23//7 43//7 42//7
f 23//8 25//8 43//8
f 43//9 25//9 44//9
f 45//10 44//10 46//10
f 45//9 43//9 44//9
f 45//9 47//9 43//9
f 43//7 47//7 42//7
f 42//7 47//7 41//7
f 39//6 42//6 41//6
f 39//6 21//6 42//6
f 39//5 19//5 21//5
f 25//9 27//9 44//9
f 44//10 27//10 48//10
f 46//11 48//11 49//11
f 46//10 44//10 48//10
f 27//10 29//10 48//10
f 48//11 29//11 31//11
f 49//11 48//11 31//11
f 20//12 18//12 50//12
f 50//12 18//12 51//12
f 51//12 18//12 1//12
f 52//12 1//12 53//12
f 54//12 52//12 53//12
f 54//12 55//12 52//12
f 1//12 3//12 53//12
f 52//12 51//12 1//12
f 5//13 56//13 3//13
f 5//14 57//14 56//14
f 5//14 7//14 57//14
f 57//15 7//15 58//15
f 59//16 58//16 60//16
f 61//17 60//17 62//17
f 63//18 62//18 64//18
f 65//18 64//18 66//18
f 67//17 66//17 68//17
f 69//16 68//16 70//16
f 71//15 70//15 72//15
f 73//14 72//14 74//14
f 53//13 73//13 74//13
f 53//13 75//13 73//13
f 53//13 76//13 75//13
f 53//13 3//13 76//13
f 76//13 3//13 77//13
f 78//14 77//14 79//14
f 80//15 79//15 59//15
f 61//16 59//16 60//16
f 61//16 80//16 59//16
f 61//16 81//16 80//16
f 61//17 63//17 81//17
f 61//17 62//17 63//17
f 7//19 9//19 58//19
f 58//16 9//16 82//16
f 60//17 82//17 83//17
f 62//18 83//18 15//18
f 64//18 62//18 15//18
f 9//16 11//16 82//16
f 82//17 11//17 84//17
f 83//18 84//18 15//18
f 83//17 82//17 84//17
f 11//17 13//17 84//17
f 84//18 13//18 15//18
f 63//18 64//18 65//18
f 81//17 65//17 67//17
f 85//16 67//16 69//16
f 86//15 69//15 71//15
f 75//14 71//14 73//14
f 75//14 86//14 71//14
f 75//14 76//14 86//14
f 86//14 76//14 78//14
f 85//15 78//15 80//15
f 81//16 85//16 80//16
f 81//16 67//16 85//16
f 65//17 66//17 67//17
f 67//16 68//16 69//16
f 69//15 70//15 71//15
f 71//14 72//14 73//14
f 77//13 3//13 56//13
f 79//14 56//14 57//14
f 59//15 57//15 58//15
f 59//15 79//15 57//15
f 79//14 77//14 56//14
f 78//14 76//14 77//14
f 80//15 78//15 79//15
f 69//15 86//15 85//15
f 85//15 86//15 78//15
f 60//16 58//16 82//16
f 62//17 60//17 83//17
f 65//17 81//17 63//17
f 87//18 32//18 88//18
f 89//17 88//17 90//17
f 89//18 87//18 88//18
f 28//17 91//17 30//17
f 28//16 92//16 91//16
f 28//16 26//16 92//16
f 92//15 26//15 93//15
f 94//14 93//14 95//14
f 94//19 92//19 93//19
f 94//19 96//19 92//19
f 92//16 96//16 91//16
f 91//16 96//16 90//16
f 88//17 91//17 90//17
f 88//17 30//17 91//17
f 88//18 32//18 30//18
f 26//19 24//19 93//19
f 93//14 24//14 97//14
f 95//13 97//13 50//13
f 95//14 93//14 97//14
f 24//14 22//14 97//14
f 97//13 22//13 20//13
f 50//13 97//13 20//13
f 98//20 99//20 100//20
f 100//20 99//20 101//20
f 99//1 98//1 102//1
f 102//1 98//1 103//1
f 104//1 103//1 105//1
f 106//1 105//1 107//1
f 108//1 107//1 109//1
f 110//1 109//1 111//1
f 112//1 111//1 113//1
f 114//1 113//1 115//1
f 114//1 112//1 113//1
f 102//1 103//1 104//1
f 104//1 105//1 106//1
f 106//1 107//1 108//1
f 108//1 109//1 110//1
f 110//1 111//1 112//1
f 100//2 101//2 116//2
f 116//2 101//2 117//2
f 118//2 117//2 119//2
f 120//2 119//2 121//2
f 122//2 121//2 123//2
f 124//2 123//2 125//2
f 126//2 125//2 127//2
f 128//2 127//2 129//2
f 128//2 126//2 127//2
f 116//2 117//2 118//2
f 118//2 119//2 120//2
f 120//2 121//2 122//2
f 122//2 123//2 124//2
f 124//2 125//2 126//2
f 113//21 130//21 115//21
f 113//22 131//22 130//22
f 113//22 111//22 131//22
f 131//23 111//23 132//23
f 133//24 132//24 134//24
f 135//25 134//25 136//25
f 137//26 136//26 138//26
f 139//26 138//26 140//26
f 141//25 140//25 142//25
f 143//24 142//24 144//24
f 145//23 144//23 146//23
f 147//22 146//22 148//22
f 149//21 147//21 148//21
f 149//21 150//21 147//21
f 149//21 151//21 150//21
f 149//21 115//21 151//21
f 151//21 115//21 152//21
f 153//22 152//22 154//22
f 155//23 154//23 133//23
f 135//24 133//24 134//24
f 135//24 155//24 133//24
f 135//24 156//24 155//24
f 135//25 137//25 156//25
f 135//25 136//25 137//25
f 111//23 109//23 132//23
f 132//24 109//24 157//24
f 134//25 157//25 158//25
f 136//26 158//26 103//26
f 138//26 136//26 103//26
f 109//27 107//27 157//27
f 157//25 107//25 159//25
f 158//26 159//26 103//26
f 158//25 157//25 159//25
f 107//25 105//25 159//25
f 159//26 105//26 103//26
f 137//26 138//26 139//26
f 156//25 139//25 141//25
f 160//24 141//24 143//24
f 161//23 143//23 145//23
f 150//22 145//22 147//22
f 150//22 161//22 145//22
f 150//22 151//22 161//22
f 161//22 151//22 153//22
f 160//23 153//23 155//23
f 156//24 160//24 155//24
f 156//24 141//24 160//24
f 139//25 140//25 141//25
f 141//24 142//24 143//24
f 143//23 144//23 145//23
f 145//22 146//22 147//22
f 152//21 115//21 130//21
f 154//22 130//22 131//22
f 133//23 131//23 132//23
f 133//23 154//23 131//23
f 154//22 152//22 130//22
f 153//22 151//22 152//22
f 155//23 153//23 154//23
f 143//23 161//23 160//23
f 160//23 161//23 153//23
f 134//24 132//24 157//24
f 136//25 134//25 158//25
f 139//25 156//25 137//25
f 162//26 116//26 163//26
f 164//25 163//25 165//25
f 164//26 162//26 163//26
f 120//25 166//25 118//25
f 120//27 167//27 166//27
f 120//24 122//24 167//24
f 167//23 122//23 168//23
f 169//22 168//22 170//22
f 169//23 167//23 168//23
f 169//23 171//23 167//23
f 167//27 171//27 166//27
f 166//27 171//27 165//27
f 163//25 166//25 165//25
f 163//25 118//25 166//25
f 163//26 116//26 118//26
f 122//23 124//23 168//23
f 168//22 124//22 172//22
f 170//21 172//21 173//21
f 170//22 168//22 172//22
f 124//22 126//22 172//22
f 172//21 126//21 128//21
f 173//21 172//21 128//21
f 174//3 115//3 175//3
f 174//3 128//3 115//3
f 174//3 173//3 128//3
f 128//3 129//3 115//3
f 115//3 129//3 114//3
f 114//3 129//3 176//3
f 177//3 114//3 176//3
f 177//3 178//3 114//3
f 177//3 179//3 178//3
f 177//3 180//3 179//3
f 129//3 181//3 176//3
f 115//3 149//3 175//3
f 175//3 149//3 182//3
f 183//3 175//3 182//3
f 117//4 101//4 184//4
f 184//4 101//4 185//4
f 185//4 101//4 99//4
f 186//4 99//4 187//4
f 188//4 186//4 187//4
f 188//4 189//4 186//4
f 99//4 102//4 187//4
f 186//4 185//4 99//4
f 104//28 190//28 102//28
f 104//29 191//29 190//29
f 104//29 106//29 191//29
f 191//30 106//30 192//30
f 193//31 192//31 194//31
f 195//32 194//32 196//32
f 197//33 196//33 178//33
f 198//33 178//33 199//33
f 200//32 199//32 201//32
f 202//31 201//31 203//31
f 204//30 203//30 205//30
f 206//29 205//29 207//29
f 187//28 208//28 206//28
f 187//28 209//28 208//28
f 187//28 102//28 209//28
f 209//28 102//28 210//28
f 211//29 210//29 212//29
f 213//30 212//30 193//30
f 195//31 193//31 194//31
f 195//31 213//31 193//31
f 195//31 214//31 213//31
f 195//32 197//32 214//32
f 195//32 196//32 197//32
f 106//30 108//30 192//30
f 192//31 108//31 215//31
f 194//32 215//32 216//32
f 196//33 216//33 114//33
f 178//33 196//33 114//33
f 108//31 110//31 215//31
f 215//32 110//32 217//32
f 216//33 217//33 114//33
f 216//32 215//32 217//32
f 110//32 112//32 217//32
f 217//33 112//33 114//33
f 197//33 178//33 198//33
f 214//32 198//32 200//32
f 218//31 200//31 202//31
f 219//30 202//30 204//30
f 208//29 204//29 206//29
f 208//29 219//29 204//29
f 208//29 209//29 219//29
f 219//29 209//29 211//29
f 218//30 211//30 213//30
f 214//31 218//31 213//31
f 214//31 200//31 218//31
f 198//32 199//32 200//32
f 200//31 201//31 202//31
f 202//30 203//30 204//30
f 204//29 205//29 206//29
f 210//28 102//28 190//28
f 212//29 190//29 191//29
f 193//30 191//30 192//30
f 193//34 212//34 191//34
f 212//29 210//29 190//29
f 211//29 209//29 210//29
f 213//30 211//30 212//30
f 202//30 219//30 218//30
f 218//30 219//30 211//30
f 194//31 192//31 215//31
f 196//32 194//32 216//32
f 198//32 214//32 197//32
f 181//33 129//33 220//33
f 221//32 220//32 222//32
f 221//33 181//33 220//33
f 125//32 223//32 127//32
f 125//31 224//31 223//31
f 125//31 123//31 224//31
f 224//34 123//34 225//34
f 226//29 225//29 227//29
f 226//30 224//30 225//30
f 226//30 228//30 224//30
f 224//31 228//31 223//31
f 223//31 228//31 222//31
f 220//32 223//32 222//32
f 220//32 127//32 223//32
f 220//33 129//33 127//33
f 123//30 121//30 225//30
f 225//29 121//29 229//29
f 227//28 229//28 184//28
f 227//29 225//29 229//29
f 121//29 119//29 229//29
f 229//28 119//28 117//28
f 184//28 229//28 117//28
f 221//2 184//2 181//2
f 221//2 222//2 184//2
f 184//2 222//2 227//2
f 227//2 222//2 226//2
f 226//2 222//2 228//2
f 185//2 230//2 184//2
f 185//2 231//2 230//2
f 185//2 232//2 231//2
f 185//2 233//2 232//2
f 232//2 233//2 234//2
f 235//2 232//2 234//2
f 235//2 236//2 232//2
f 232//2 236//2 237//2
f 238//2 239//2 231//2
f 231//2 239//2 240//2
f 241//2 231//2 240//2
f 241//2 242//2 231//2
f 231//2 242//2 230//2
f 230//2 243//2 184//2
f 184//2 243//2 181//2
f 181//2 243//2 176//2
f 176//2 243//2 244//2
f 244//2 243//2 245//2
f 245//2 243//2 246//2
f 246//2 243//2 247//2
f 248//2 246//2 247//2
f 249//28 250//28 251//28
f 249//29 252//29 250//29
f 249//29 253//29 252//29
f 252//30 253//30 254//30
f 255//31 254//31 256//31
f 257//32 256//32 258//32
f 259//33 258//33 174//33
f 175//33 259//33 174//33
f 175//33 260//33 259//33
f 175//33 261//33 260//33
f 175//33 262//33 261//33
f 175//33 263//33 262//33
f 262//32 263//32 264//32
f 265//31 264//31 266//31
f 267//30 266//30 268//30
f 269//29 268//29 270//29
f 271//28 270//28 251//28
f 272//28 251//28 250//28
f 273//29 250//29 252//29
f 255//30 252//30 254//30
f 255//30 273//30 252//30
f 255//30 274//30 273//30
f 255//31 257//31 274//31
f 255//31 256//31 257//31
f 253//30 275//30 254//30
f 254//31 275//31 276//31
f 256//32 276//32 277//32
f 258//33 277//33 174//33
f 258//32 256//32 277//32
f 275//31 278//31 276//31
f 276//32 278//32 279//32
f 277//33 279//33 174//33
f 277//32 276//32 279//32
f 278//32 280//32 279//32
f 279//33 280//33 174//33
f 263//32 281//32 264//32
f 264//31 281//31 282//31
f 266//30 282//30 283//30
f 268//29 283//29 284//29
f 270//28 284//28 285//28
f 251//28 270//28 285//28
f 281//31 286//31 282//31
f 282//34 286//34 287//34
f 283//29 287//29 288//29
f 284//28 288//28 285//28
f 284//29 283//29 288//29
f 286//30 289//30 287//30
f 287//29 289//29 290//29
f 288//28 290//28 285//28
f 288//29 287//29 290//29
f 289//29 291//29 290//29
f 290//28 291//28 285//28
f 271//28 251//28 272//28
f 292//29 272//29 273//29
f 274//30 292//30 273//30
f 274//30 293//30 292//30
f 274//31 294//31 293//31
f 274//31 257//31 294//31
f 294//32 257//32 259//32
f 260//32 294//32 259//32
f 260//32 295//32 294//32
f 260//32 261//32 295//32
f 295//32 261//32 265//32
f 267//31 265//31 266//31
f 267//31 295//31 265//31
f 267//31 293//31 295//31
f 267//30 269//30 293//30
f 267//30 268//30 269//30
f 272//29 250//29 273//29
f 269//29 270//29 271//29
f 292//29 271//29 272//29
f 292//29 269//29 271//29
f 292//30 293//30 269//30
f 268//29 284//29 270//29
f 266//30 283//30 268//30
f 282//30 287//30 283//30
f 256//31 254//31 276//31
f 295//31 293//31 294//31
f 264//31 282//31 266//31
f 259//32 257//32 258//32
f 262//32 264//32 265//32
f 261//32 262//32 265//32
f 280//2 251//2 174//2
f 280//2 278//2 251//2
f 251//2 278//2 249//2
f 249//2 278//2 253//2
f 253//2 278//2 275//2
f 296//2 297//2 251//2
f 296//2 298//2 297//2
f 296//2 299//2 298//2
f 296//2 300//2 299//2
f 299//2 300//2 301//2
f 302//2 299//2 301//2
f 302//2 303//2 299//2
f 299//2 303//2 304//2
f 305//2 306//2 298//2
f 298//2 306//2 307//2
f 308//2 298//2 307//2
f 308//2 309//2 298//2
f 298//2 309//2 297//2
f 297//2 162//2 251//2
f 251//2 162//2 174//2
f 174//2 162//2 173//2
f 173//2 162//2 170//2
f 170//2 162//2 169//2
f 169//2 162//2 171//2
f 171//2 162//2 164//2
f 165//2 171//2 164//2
f 310//28 311//28 312//28
f 310//29 313//29 311//29
f 310//29 314//29 313//29
f 313//30 314//30 315//30
f 316//31 315//31 317//31
f 318//32 317//32 319//32
f 320//33 319//33 321//33
f 322//33 320//33 321//33
f 322//33 323//33 320//33
f 322//33 324//33 323//33
f 322//33 325//33 324//33
f 322//33 326//33 325//33
f 325//32 326//32 327//32
f 328//35 327//35 329//35
f 330//30 329//30 331//30
f 332//29 331//29 333//29
f 334//28 333//28 312//28
f 335//28 312//28 311//28
f 336//29 311//29 313//29
f 316//30 313//30 315//30
f 316//30 336//30 313//30
f 316//30 337//30 336//30
f 316//31 318//31 337//31
f 316//35 317//35 318//35
f 314//30 338//30 315//30
f 315//31 338//31 339//31
f 317//32 339//32 340//32
f 319//33 340//33 321//33
f 319//32 317//32 340//32
f 338//35 341//35 339//35
f 339//32 341//32 342//32
f 340//33 342//33 321//33
f 340//32 339//32 342//32
f 341//32 343//32 342//32
f 342//33 343//33 321//33
f 326//32 344//32 327//32
f 327//35 344//35 345//35
f 329//30 345//30 346//30
f 331//29 346//29 347//29
f 333//28 347//28 348//28
f 312//28 333//28 348//28
f 344//35 349//35 345//35
f 345//34 349//34 350//34
f 346//29 350//29 351//29
f 347//28 351//28 348//28
f 347//29 346//29 351//29
f 349//30 352//30 350//30
f 350//29 352//29 353//29
f 351//28 353//28 348//28
f 351//29 350//29 353//29
f 352//29 354//29 353//29
f 353//28 354//28 348//28
f 334//28 312//28 335//28
f 355//29 335//29 336//29
f 337//30 355//30 336//30
f 337//30 356//30 355//30
f 337//31 357//31 356//31
f 337//35 318//35 357//35
f 357//32 318//32 320//32
f 323//32 357//32 320//32
f 323//32 358//32 357//32
f 323//32 324//32 358//32
f 358//32 324//32 328//32
f 330//31 328//31 329//31
f 330//35 358//35 328//35
f 330//31 356//31 358//31
f 330//30 332//30 356//30
f 330//30 331//30 332//30
f 335//29 311//29 336//29
f 332//29 333//29 334//29
f 355//29 334//29 335//29
f 355//29 332//29 334//29
f 355//30 356//30 332//30
f 331//29 347//29 333//29
f 329//30 346//30 331//30
f 345//30 350//30 346//30
f 317//35 315//35 339//35
f 358//35 356//35 357//35
f 327//31 345//31 329//31
f 320//32 318//32 319//32
f 325//32 327//32 328//32
f 324//32 325//32 328//32
f 322//3 321//3 359//3
f 359//3 321//3 360//3
f 343//2 312//2 321//2
f 343//2 341//2 312//2
f 312//2 341//2 310//2
f 310//2 341//2 314//2
f 314//2 341//2 338//2
f 361//2 50//2 312//2
f 361//2 87//2 50//2
f 361//2 362//2 87//2
f 361//2 363//2 362//2
f 362//2 363//2 364//2
f 365//2 362//2 364//2
f 365//2 366//2 362//2
f 362//2 366//2 367//2
f 89//2 90//2 87//2
f 87//2 90//2 96//2
f 94//2 87//2 96//2
f 94//2 95//2 87//2
f 87//2 95//2 50//2
f 50//2 51//2 312//2
f 312//2 51//2 321//2
f 321//2 51//2 360//2
f 360//2 51//2 368//2
f 368//2 51//2 369//2
f 369//2 51//2 370//2
f 370//2 51//2 371//2
f 372//2 370//2 371//2
f 373//21 374//21 375//21
f 373//22 376//22 374//22
f 373//22 377//22 376//22
f 376//36 377//36 378//36
f 379//27 378//27 380//27
f 381//25 380//25 382//25
f 383//26 382//26 384//26
f 385//26 383//26 384//26
f 385//26 386//26 383//26
f 385//26 387//26 386//26
f 385//26 388//26 387//26
f 385//26 389//26 388//26
f 388//25 389//25 390//25
f 391//27 390//27 392//27
f 393//23 392//23 394//23
f 395//22 394//22 396//22
f 397//21 396//21 375//21
f 398//21 375//21 374//21
f 399//22 374//22 376//22
f 379//23 376//23 378//23
f 379//36 399//36 376//36
f 379//23 400//23 399//23
f 379//27 381//27 400//27
f 379//27 380//27 381//27
f 377//23 401//23 378//23
f 378//27 401//27 402//27
f 380//25 402//25 403//25
f 382//26 403//26 384//26
f 382//25 380//25 403//25
f 401//27 404//27 402//27
f 402//25 404//25 405//25
f 403//26 405//26 384//26
f 403//25 402//25 405//25
f 404//25 406//25 405//25
f 405//26 406//26 384//26
f 389//25 407//25 390//25
f 390//27 407//27 408//27
f 392//23 408//23 409//23
f 394//22 409//22 410//22
f 396//21 410//21 411//21
f 375//21 396//21 411//21
f 407//24 412//24 408//24
f 408//36 412//36 413//36
f 409//22 413//22 414//22
f 410//21 414//21 411//21
f 410//22 409//22 414//22
f 412//36 415//36 413//36
f 413//22 415//22 416//22
f 414//21 416//21 411//21
f 414//22 413//22 416//22
f 415//22 417//22 416//22
f 416//21 417//21 411//21
f 397//21 375//21 398//21
f 418//22 398//22 399//22
f 400//36 418//36 399//36
f 400//23 419//23 418//23
f 400//27 420//27 419//27
f 400//27 381//27 420//27
f 420//25 381//25 383//25
f 386//25 420//25 383//25
f 386//25 421//25 420//25
f 386//25 387//25 421//25
f 421//25 387//25 391//25
f 393//27 391//27 392//27
f 393//27 421//27 391//27
f 393//27 419//27 421//27
f 393//23 395//23 419//23
f 393//36 394//36 395//36
f 398//22 374//22 399//22
f 395//22 396//22 397//22
f 418//22 397//22 398//22
f 418//22 395//22 397//22
f 418//36 419//36 395//36
f 394//22 410//22 396//22
f 392//36 409//36 394//36
f 408//36 413//36 409//36
f 380//27 378//27 402//27
f 421//27 419//27 420//27
f 390//27 408//27 392//27
f 383//25 381//25 382//25
f 388//25 390//25 391//25
f 387//25 388//25 391//25
f 406//2 401//2 384//2
f 406//2 404//2 401//2
f 401//2 377//2 384//2
f 384//2 377//2 373//2
f 375//2 384//2 373//2
f 375//2 422//2 384//2
f 384//2 422//2 37//2
f 423//2 37//2 38//2
f 424//2 38//2 49//2
f 424//2 423//2 38//2
f 424//2 425//2 423//2
f 424//2 426//2 425//2
f 424//2 427//2 426//2
f 424//2 428//2 427//2
f 424//2 429//2 428//2
f 422//2 430//2 37//2
f 37//2 430//2 431//2
f 432//2 431//2 433//2
f 432//2 37//2 431//2
f 431//2 434//2 433//2
f 384//2 37//2 423//2
f 38//2 40//2 49//2
f 49//2 40//2 41//2
f 47//2 49//2 41//2
f 47//2 45//2 49//2
f 49//2 45//2 46//2
f 375//3 411//3 422//3
f 422//3 411//3 435//3
f 304//11 436//11 299//11
f 304//10 437//10 436//10
f 304//10 303//10 437//10
f 437//37 303//37 438//37
f 439//7 438//7 440//7
f 441//6 440//6 442//6
f 443//5 442//5 296//5
f 444//5 443//5 296//5
f 444//5 445//5 443//5
f 444//5 446//5 445//5
f 444//5 447//5 446//5
f 444//5 448//5 447//5
f 447//6 448//6 449//6
f 450//7 449//7 451//7
f 452//9 451//9 453//9
f 454//10 453//10 455//10
f 456//11 455//11 299//11
f 457//11 299//11 436//11
f 458//10 436//10 437//10
f 439//9 437//9 438//9
f 439//37 458//37 437//37
f 439//9 459//9 458//9
f 439//7 441//7 459//7
f 439//7 440//7 441//7
f 303//9 302//9 438//9
f 438//7 302//7 460//7
f 440//6 460//6 461//6
f 442//5 461//5 296//5
f 442//6 440//6 461//6
f 302//7 301//7 460//7
f 460//6 301//6 462//6
f 461//5 462//5 296//5
f 461//6 460//6 462//6
f 301//6 300//6 462//6
f 462//5 300//5 296//5
f 448//6 463//6 449//6
f 449//7 463//7 464//7
f 451//9 464//9 465//9
f 453//10 465//10 466//10
f 455//11 466//11 467//11
f 299//11 455//11 467//11
f 463//8 468//8 464//8
f 464//37 468//37 469//37
f 465//10 469//10 470//10
f 466//11 470//11 467//11
f 466//10 465//10 470//10
f 468//37 471//37 469//37
f 469//10 471//10 472//10
f 470//11 472//11 467//11
f 470//10 469//10 472//10
f 471//10 473//10 472//10
f 472//11 473//11 467//11
f 456//11 299//11 457//11
f 474//10 457//10 458//10
f 459//37 474//37 458//37
f 459//9 475//9 474//9
f 459//7 476//7 475//7
f 459//7 441//7 476//7
f 476//6 441//6 443//6
f 445//6 476//6 443//6
f 445//6 477//6 476//6
f 445//6 446//6 477//6
f 477//6 446//6 450//6
f 452//7 450//7 451//7
f 452//7 477//7 450//7
f 452//7 475//7 477//7
f 452//9 454//9 475//9
f 452//37 453//37 454//37
f 457//10 436//10 458//10
f 454//10 455//10 456//10
f 474//10 456//10 457//10
f 474//10 454//10 456//10
f 474//37 475//37 454//37
f 453//10 466//10 455//10
f 451//37 465//37 453//37
f 464//37 469//37 465//37
f 440//7 438//7 460//7
f 477//7 475//7 476//7
f 449//7 464//7 451//7
f 443//6 441//6 442//6
f 447//6 449//6 450//6
f 446//6 447//6 450//6
f 299//20 467//20 298//20
f 298//20 467//20 478//20
f 242//13 479//13 230//13
f 242//14 480//14 479//14
f 242//14 241//14 480//14
f 480//19 241//19 481//19
f 482//16 481//16 483//16
f 484//17 483//17 485//17
f 486//18 485//18 231//18
f 487//18 486//18 231//18
f 487//18 488//18 486//18
f 487//18 489//18 488//18
f 487//18 490//18 489//18
f 487//18 491//18 490//18
f 490//17 491//17 492//17
f 493//38 492//38 494//38
f 495//19 494//19 496//19
f 497//14 496//14 498//14
f 499//13 498//13 230//13
f 500//13 230//13 479//13
f 501//14 479//14 480//14
f 482//19 480//19 481//19
f 482//19 501//19 480//19
f 482//19 502//19 501//19
f 482//16 484//16 502//16
f 482//38 483//38 484//38
f 241//19 240//19 481//19
f 481//16 240//16 503//16
f 483//17 503//17 504//17
f 485//18 504//18 231//18
f 485//17 483//17 504//17
f 240//38 239//38 503//38
f 503//17 239//17 505//17
f 504//18 505//18 231//18
f 504//17 503//17 505//17
f 239//17 238//17 505//17
f 505//18 238//18 231//18
f 491//17 506//17 492//17
f 492//38 506//38 507//38
f 494//19 507//19 508//19
f 496//14 508//14 509//14
f 498//13 509//13 510//13
f 230//13 498//13 510//13
f 506//38 511//38 507//38
f 507//15 511//15 512//15
f 508//14 512//14 513//14
f 509//13 513//13 510//13
f 509//14 508//14 513//14
f 511//19 514//19 512//19
f 512//14 514//14 515//14
f 513//13 515//13 510//13
f 513//14 512//14 515//14
f 514//14 516//14 515//14
f 515//13 516//13 510//13
f 499//13 230//13 500//13
f 517//14 500//14 501//14
f 502//19 517//19 501//19
f 502//19 518//19 517//19
f 502//16 519//16 518//16
f 502//38 484//38 519//38
f 519//17 484//17 486//17
f 488//17 519//17 486//17
f 488//17 520//17 519//17
f 488//17 489//17 520//17
f 520//17 489//17 493//17
f 495//16 493//16 494//16
f 495//38 520//38 493//38
f 495//16 518//16 520//16
f 495//19 497//19 518//19
f 495//19 496//19 497//19
f 500//14 479//14 501//14
f 497//14 498//14 499//14
f 517//14 499//14 500//14
f 517//14 497//14 499//14
f 517//19 518//19 497//19
f 496//14 509//14 498//14
f 494//19 508//19 496//19
f 507//19 512//19 508//19
f 483//38 481//38 503//38
f 520//38 518//38 519//38
f 492//16 507//16 494//16
f 486//17 484//17 485//17
f 490//17 492//17 493//17
f 489//17 490//17 493//17
f 230//12 510//12 243//12
f 243//12 510//12 521//12
f 432//28 522//28 37//28
f 432//29 523//29 522//29
f 432//29 433//29 523//29
f 523//30 433//30 524//30
f 525//35 524//35 526//35
f 527//32 526//32 528//32
f 529//33 528//33 422//33
f 435//33 529//33 422//33
f 435//33 530//33 529//33
f 435//33 531//33 530//33
f 435//33 532//33 531//33
f 435//33 533//33 532//33
f 532//32 533//32 534//32
f 535//35 534//35 536//35
f 537//30 536//30 538//30
f 539//29 538//29 540//29
f 541//28 540//28 37//28
f 542//28 37//28 522//28
f 543//29 522//29 523//29
f 525//30 523//30 524//30
f 525//30 543//30 523//30
f 525//30 544//30 543//30
f 525//35 527//35 544//35
f 525//35 526//35 527//35
f 433//30 434//30 524//30
f 524//35 434//35 545//35
f 526//32 545//32 546//32
f 528//33 546//33 422//33
f 528//32 526//32 546//32
f 434//35 431//35 545//35
f 545//32 431//32 547//32
f 546//33 547//33 422//33
f 546//32 545//32 547//32
f 431//32 430//32 547//32
f 547//33 430//33 422//33
f 533//32 548//32 534//32
f 534//35 548//35 549//35
f 536//30 549//30 550//30
f 538//29 550//29 551//29
f 540//28 551//28 34//28
f 37//28 540//28 34//28
f 548//35 552//35 549//35
f 549//30 552//30 553//30
f 550//29 553//29 554//29
f 551//28 554//28 34//28
f 551//29 550//29 554//29
f 552//34 555//34 553//34
f 553//29 555//29 556//29
f 554//28 556//28 34//28
f 554//29 553//29 556//29
f 555//29 557//29 556//29
f 556//28 557//28 34//28
f 541//28 37//28 542//28
f 558//29 542//29 543//29
f 544//30 558//30 543//30
f 544//30 559//30 558//30
f 544//35 560//35 559//35
f 544//35 527//35 560//35
f 560//32 527//32 529//32
f 530//32 560//32 529//32
f 530//32 561//32 560//32
f 530//32 531//32 561//32
f 561//32 531//32 535//32
f 537//35 535//35 536//35
f 537//35 561//35 535//35
f 537//35 559//35 561//35
f 537//30 539//30 559//30
f 537//30 538//30 539//30
f 542//29 522//29 543//29
f 539//29 540//29 541//29
f 558//29 541//29 542//29
f 558//29 539//29 541//29
f 558//30 559//30 539//30
f 538//29 551//29 540//29
f 536//30 550//30 538//30
f 549//30 553//30 550//30
f 526//35 524//35 545//35
f 561//35 559//35 560//35
f 534//35 549//35 536//35
f 529//32 527//32 528//32
f 532//32 534//32 535//32
f 531//32 532//32 535//32
f 425//13 562//13 423//13
f 425//14 563//14 562//14
f 425//14 426//14 563//14
f 563//19 426//19 564//19
f 565//16 564//16 566//16
f 567//17 566//17 568//17
f 569//18 568//18 424//18
f 570//18 569//18 424//18
f 570//18 571//18 569//18
f 570//18 572//18 571//18
f 570//18 573//18 572//18
f 570//18 574//18 573//18
f 573//17 574//17 575//17
f 576//16 575//16 577//16
f 578//19 577//19 579//19
f 580//14 579//14 581//14
f 582//13 581//13 423//13
f 583//13 423//13 562//13
f 584//14 562//14 563//14
f 565//19 563//19 564//19
f 565//19 584//19 563//19
f 565//19 585//19 584//19
f 565//16 567//16 585//16
f 565//16 566//16 567//16
f 426//19 427//19 564//19
f 564//16 427//16 586//16
f 566//17 586//17 587//17
f 568//18 587//18 424//18
f 568//17 566//17 587//17
f 427//16 428//16 586//16
f 586//17 428//17 588//17
f 587//18 588//18 424//18
f 587//17 586//17 588//17
f 428//17 429//17 588//17
f 588//18 429//18 424//18
f 574//17 589//17 575//17
f 575//16 589//16 590//16
f 577//19 590//19 591//19
f 579//14 591//14 592//14
f 581//13 592//13 593//13
f 423//13 581//13 593//13
f 589//16 594//16 590//16
f 590//15 594//15 595//15
f 591//14 595//14 596//14
f 592//13 596//13 593//13
f 592//14 591//14 596//14
f 594//19 597//19 595//19
f 595//14 597//14 598//14
f 596//13 598//13 593//13
f 596//14 595//14 598//14
f 597//14 599//14 598//14
f 598//13 599//13 593//13
f 582//13 423//13 583//13
f 600//14 583//14 584//14
f 585//19 600//19 584//19
f 585//19 601//19 600//19
f 585//16 602//16 601//16
f 585//16 567//16 602//16
f 602//17 567//17 569//17
f 571//17 602//17 569//17
f 571//17 603//17 602//17
f 571//17 572//17 603//17
f 603//17 572//17 576//17
f 578//16 576//16 577//16
f 578//16 603//16 576//16
f 578//16 601//16 603//16
f 578//19 580//19 601//19
f 578//19 579//19 580//19
f 583//14 562//14 584//14
f 580//14 581//14 582//14
f 600//14 582//14 583//14
f 600//14 580//14 582//14
f 600//19 601//19 580//19
f 579//14 592//14 581//14
f 577//19 591//19 579//19
f 590//19 595//19 591//19
f 566//16 564//16 586//16
f 603//16 601//16 602//16
f 575//16 590//16 577//16
f 569//17 567//17 568//17
f 573//17 575//17 576//17
f 572//17 573//17 576//17
f 604//20 570//20 16//20
f 604//20 605//20 570//20
f 570//20 605//20 606//20
f 570//20 424//20 16//20
f 16//20 424//20 31//20
f 32//20 16//20 31//20
f 32//20 15//20 16//20
f 32//20 362//20 15//20
f 32//20 87//20 362//20
f 424//20 49//20 31//20
f 362//20 607//20 15//20
f 15//20 607//20 64//20
f 64//20 607//20 608//20
f 608//20 607//20 609//20
f 368//21 610//21 360//21
f 368//22 611//22 610//22
f 368//22 369//22 611//22
f 611//36 369//36 612//36
f 613//27 612//27 614//27
f 615//25 614//25 616//25
f 617//26 616//26 51//26
f 52//26 617//26 51//26
f 52//26 618//26 617//26
f 52//26 619//26 618//26
f 52//26 620//26 619//26
f 52//26 621//26 620//26
f 620//25 621//25 622//25
f 623//27 622//27 624//27
f 625//36 624//36 626//36
f 627//22 626//22 628//22
f 629//21 628//21 360//21
f 630//21 360//21 610//21
f 631//22 610//22 611//22
f 613//36 611//36 612//36
f 613//36 631//36 611//36
f 613//36 632//36 631//36
f 613//27 615//27 632//27
f 613//27 614//27 615//27
f 369//36 370//36 612//36
f 612//27 370//27 633//27
f 614//25 633//25 634//25
f 616//26 634//26 51//26
f 616//25 614//25 634//25
f 370//27 372//27 633//27
f 633//25 372//25 635//25
f 634//26 635//26 51//26
f 634//25 633//25 635//25
f 372//25 371//25 635//25
f 635//26 371//26 51//26
f 621//25 636//25 622//25
f 622//24 636//24 637//24
f 624//36 637//36 638//36
f 626//22 638//22 639//22
f 628//21 639//21 359//21
f 360//21 628//21 359//21
f 636//27 640//27 637//27
f 637//36 640//36 641//36
f 638//22 641//22 642//22
f 639//21 642//21 359//21
f 639//22 638//22 642//22
f 640//36 643//36 641//36
f 641//22 643//22 644//22
f 642//21 644//21 359//21
f 642//22 641//22 644//22
f 643//22 645//22 644//22
f 644//21 645//21 359//21
f 629//21 360//21 630//21
f 646//22 630//22 631//22
f 632//36 646//36 631//36
f 632//36 647//36 646//36
f 632//27 648//27 647//27
f 632//27 615//27 648//27
f 648//25 615//25 617//25
f 618//25 648//25 617//25
f 618//25 649//25 648//25
f 618//25 619//25 649//25
f 649//25 619//25 623//25
f 625//27 623//27 624//27
f 625//27 649//27 623//27
f 625//27 647//27 649//27
f 625//36 627//36 647//36
f 625//36 626//36 627//36
f 630//22 610//22 631//22
f 627//22 628//22 629//22
f 646//22 629//22 630//22
f 646//22 627//22 629//22
f 646//36 647//36 627//36
f 626//22 639//22 628//22
f 624//36 638//36 626//36
f 637//36 641//36 638//36
f 614//27 612//27 633//27
f 649//27 647//27 648//27
f 622//27 637//27 624//27
f 617//25 615//25 616//25
f 620//25 622//25 623//25
f 619//25 620//25 623//25
f 367//11 650//11 362//11
f 367//10 651//10 650//10
f 367//10 366//10 651//10
f 651//9 366//9 652//9
f 653//7 652//7 654//7
f 655//6 654//6 656//6
f 657//5 656//5 361//5
f 658//5 657//5 361//5
f 658//5 659//5 657//5
f 658//5 660//5 659//5
f 658//5 661//5 660//5
f 658//5 662//5 661//5
f 661//6 662//6 663//6
f 664//7 663//7 665//7
f 666//9 665//9 667//9
f 668//10 667//10 669//10
f 670//11 669//11 362//11
f 671//11 362//11 650//11
f 672//10 650//10 651//10
f 653//9 651//9 652//9
f 653//9 672//9 651//9
f 653//9 673//9 672//9
f 653//7 655//7 673//7
f 653//7 654//7 655//7
f 366//9 365//9 652//9
f 652//7 365//7 674//7
f 654//6 674//6 675//6
f 656//5 675//5 361//5
f 656//6 654//6 675//6
f 365//7 364//7 674//7
f 674//6 364//6 676//6
f 675//5 676//5 361//5
f 675//6 674//6 676//6
f 364//6 363//6 676//6
f 676//5 363//5 361//5
f 662//6 677//6 663//6
f 663//7 677//7 678//7
f 665//9 678//9 679//9
f 667//10 679//10 680//10
f 669//11 680//11 607//11
f 362//11 669//11 607//11
f 677//8 681//8 678//8
f 678//9 681//9 682//9
f 679//10 682//10 683//10
f 680//11 683//11 607//11
f 680//10 679//10 683//10
f 681//9 684//9 682//9
f 682//10 684//10 685//10
f 683//11 685//11 607//11
f 683//10 682//10 685//10
f 684//10 686//10 685//10
f 685//11 686//11 607//11
f 670//11 362//11 671//11
f 687//10 671//10 672//10
f 673//9 687//9 672//9
f 673//9 688//9 687//9
f 673//7 689//7 688//7
f 673//7 655//7 689//7
f 689//6 655//6 657//6
f 659//6 689//6 657//6
f 659//6 690//6 689//6
f 659//6 660//6 690//6
f 690//6 660//6 664//6
f 666//7 664//7 665//7
f 666//7 690//7 664//7
f 666//7 688//7 690//7
f 666//9 668//9 688//9
f 666//9 667//9 668//9
f 671//10 650//10 672//10
f 668//10 669//10 670//10
f 687//10 670//10 671//10
f 687//10 668//10 670//10
f 687//9 688//9 668//9
f 667//10 680//10 669//10
f 665//9 679//9 667//9
f 678//9 682//9 679//9
f 654//7 652//7 674//7
f 690//7 688//7 689//7
f 663//7 678//7 665//7
f 657//6 655//6 656//6
f 661//6 663//6 664//6
f 660//6 661//6 664//6
f 312//4 348//4 361//4
f 361//4 348//4 658//4
f 309//13 691//13 297//13
f 309//14 692//14 691//14
f 309//14 308//14 692//14
f 692//19 308//19 693//19
f 694//38 693//38 695//38
f 696//17 695//17 697//17
f 698//18 697//18 298//18
f 478//18 698//18 298//18
f 478//18 699//18 698//18
f 478//18 700//18 699//18
f 478//18 701//18 700//18
f 478//18 702//18 701//18
f 701//17 702//17 703//17
f 704//38 703//38 705//38
f 706//19 705//19 707//19
f 708//14 707//14 709//14
f 710//13 709//13 297//13
f 711//13 297//13 691//13
f 712//14 691//14 692//14
f 694//19 692//19 693//19
f 694//19 712//19 692//19
f 694//19 713//19 712//19
f 694//38 696//38 713//38
f 694//38 695//38 696//38
f 308//19 307//19 693//19
f 693//38 307//38 714//38
f 695//17 714//17 715//17
f 697//18 715//18 298//18
f 697//17 695//17 715//17
f 307//38 306//38 714//38
f 714//17 306//17 716//17
f 715//18 716//18 298//18
f 715//17 714//17 716//17
f 306//17 305//17 716//17
f 716//18 305//18 298//18
f 702//17 717//17 703//17
f 703//38 717//38 718//38
f 705//19 718//19 719//19
f 707//14 719//14 720//14
f 709//13 720//13 721//13
f 297//13 709//13 721//13
f 717//38 722//38 718//38
f 718//19 722//19 723//19
f 719//14 723//14 724//14
f 720//13 724//13 721//13
f 720//14 719//14 724//14
f 722//15 725//15 723//15
f 723//14 725//14 726//14
f 724//13 726//13 721//13
f 724//14 723//14 726//14
f 725//14 727//14 726//14
f 726//13 727//13 721//13
f 710//13 297//13 711//13
f 728//14 711//14 712//14
f 713//19 728//19 712//19
f 713//19 729//19 728//19
f 713//38 730//38 729//38
f 713//38 696//38 730//38
f 730//17 696//17 698//17
f 699//17 730//17 698//17
f 699//17 731//17 730//17
f 699//17 700//17 731//17
f 731//17 700//17 704//17
f 706//38 704//38 705//38
f 706//38 731//38 704//38
f 706//38 729//38 731//38
f 706//19 708//19 729//19
f 706//19 707//19 708//19
f 711//14 691//14 712//14
f 708//14 709//14 710//14
f 728//14 710//14 711//14
f 728//14 708//14 710//14
f 728//19 729//19 708//19
f 707//14 720//14 709//14
f 705//19 719//19 707//19
f 718//19 723//19 719//19
f 695//38 693//38 714//38
f 731//38 729//38 730//38
f 703//38 718//38 705//38
f 698//17 696//17 697//17
f 701//17 703//17 704//17
f 700//17 701//17 704//17
f 244//21 732//21 176//21
f 244//22 733//22 732//22
f 244//22 245//22 733//22
f 733//23 245//23 734//23
f 735//27 734//27 736//27
f 737//25 736//25 738//25
f 739//26 738//26 243//26
f 521//26 739//26 243//26
f 521//26 740//26 739//26
f 521//26 741//26 740//26
f 521//26 742//26 741//26
f 521//26 743//26 742//26
f 742//25 743//25 744//25
f 745//27 744//27 746//27
f 747//23 746//23 748//23
f 749//22 748//22 750//22
f 751//21 750//21 176//21
f 752//21 176//21 732//21
f 753//22 732//22 733//22
f 735//23 733//23 734//23
f 735//23 753//23 733//23
f 735//23 754//23 753//23
f 735//27 737//27 754//27
f 735//27 736//27 737//27
f 245//23 246//23 734//23
f 734//27 246//27 755//27
f 736//25 755//25 756//25
f 738//26 756//26 243//26
f 738//25 736//25 756//25
f 246//27 248//27 755//27
f 755//25 248//25 757//25
f 756//26 757//26 243//26
f 756//25 755//25 757//25
f 248//25 247//25 757//25
f 757//26 247//26 243//26
f 743//25 758//25 744//25
f 744//27 758//27 759//27
f 746//23 759//23 760//23
f 748//22 760//22 761//22
f 750//21 761//21 177//21
f 176//21 750//21 177//21
f 758//24 762//24 759//24
f 759//23 762//23 763//23
f 760//22 763//22 764//22
f 761//21 764//21 177//21
f 761//22 760//22 764//22
f 762//23 765//23 763//23
f 763//22 765//22 766//22
f 764//21 766//21 177//21
f 764//22 763//22 766//22
f 765//22 767//22 766//22
f 766//21 767//21 177//21
f 751//21 176//21 752//21
f 768//22 752//22 753//22
f 754//23 768//23 753//23
f 754//23 769//23 768//23
f 754//27 770//27 769//27
f 754//27 737//27 770//27
f 770//25 737//25 739//25
f 740//25 770//25 739//25
f 740//25 771//25 770//25
f 740//25 741//25 771//25
f 771//25 741//25 745//25
f 747//27 745//27 746//27
f 747//27 771//27 745//27
f 747//27 769//27 771//27
f 747//23 749//23 769//23
f 747//23 748//23 749//23
f 752//22 732//22 753//22
f 749//22 750//22 751//22
f 768//22 751//22 752//22
f 768//22 749//22 751//22
f 768//23 769//23 749//23
f 748//22 761//22 750//22
f 746//23 760//23 748//23
f 759//23 763//23 760//23
f 736//27 734//27 755//27
f 771//27 769//27 770//27
f 744//27 759//27 746//27
f 739//25 737//25 738//25
f 742//25 744//25 745//25
f 741//25 742//25 745//25
f 237//11 772//11 232//11
f 237//10 773//10 772//10
f 237//10 236//10 773//10
f 773//37 236//37 774//37
f 775//7 774//7 776//7
f 777//6 776//6 778//6
f 779//5 778//5 185//5
f 186//5 779//5 185//5
f 186//5 780//5 779//5
f 186//5 781//5 780//5
f 186//5 782//5 781//5
f 186//5 783//5 782//5
f 782//6 783//6 784//6
f 785//7 784//7 786//7
f 787//37 786//37 788//37
f 789//10 788//10 790//10
f 791//11 790//11 232//11
f 792//11 232//11 772//11
f 793//10 772//10 773//10
f 775//37 773//37 774//37
f 775//37 793//37 773//37
f 775//37 794//37 793//37
f 775//7 777//7 794//7
f 775//7 776//7 777//7
f 236//37 235//37 774//37
f 774//7 235//7 795//7
f 776//6 795//6 796//6
f 778//5 796//5 185//5
f 778//6 776//6 796//6
f 235//7 234//7 795//7
f 795//6 234//6 797//6
f 796//5 797//5 185//5
f 796//6 795//6 797//6
f 234//6 233//6 797//6
f 797//5 233//5 185//5
f 783//6 798//6 784//6
f 784//8 798//8 799//8
f 786//37 799//37 800//37
f 788//10 800//10 801//10
f 790//11 801//11 802//11
f 232//11 790//11 802//11
f 798//7 803//7 799//7
f 799//37 803//37 804//37
f 800//10 804//10 805//10
f 801//11 805//11 802//11
f 801//10 800//10 805//10
f 803//37 806//37 804//37
f 804//10 806//10 807//10
f 805//11 807//11 802//11
f 805//10 804//10 807//10
f 806//10 808//10 807//10
f 807//11 808//11 802//11
f 791//11 232//11 792//11
f 809//10 792//10 793//10
f 794//37 809//37 793//37
f 794//37 810//37 809//37
f 794//7 811//7 810//7
f 794//7 777//7 811//7
f 811//6 777//6 779//6
f 780//6 811//6 779//6
f 780//6 812//6 811//6
f 780//6 781//6 812//6
f 812//6 781//6 785//6
f 787//7 785//7 786//7
f 787//7 812//7 785//7
f 787//7 810//7 812//7
f 787//37 789//37 810//37
f 787//37 788//37 789//37
f 792//10 772//10 793//10
f 789//10 790//10 791//10
f 809//10 791//10 792//10
f 809//10 789//10 791//10
f 809//37 810//37 789//37
f 788//10 801//10 790//10
f 786//37 800//37 788//37
f 799//37 804//37 800//37
f 776//7 774//7 795//7
f 812//7 810//7 811//7
f 784//7 799//7 786//7
f 779//6 777//6 778//6
f 782//6 784//6 785//6
f 781//6 782//6 785//6
f 487//20 231//20 802//20
f 802//20 231//20 232//20
f 14//11 813//11 16//11
f 14//10 814//10 813//10
f 14//10 12//10 814//10
f 814//9 12//9 815//9
f 816//8 815//8 817//8
f 818//6 817//6 819//6
f 820//5 819//5 33//5
f 821//5 33//5 822//5
f 823//6 822//6 824//6
f 825//7 824//7 826//7
f 827//9 826//9 828//9
f 829//10 828//10 830//10
f 604//11 829//11 830//11
f 604//11 831//11 829//11
f 604//11 832//11 831//11
f 604//11 16//11 832//11
f 832//11 16//11 833//11
f 834//10 833//10 835//10
f 836//9 835//9 816//9
f 818//7 816//7 817//7
f 818//7 836//7 816//7
f 818//7 837//7 836//7
f 818//6 820//6 837//6
f 818//6 819//6 820//6
f 12//9 10//9 815//9
f 815//7 10//7 838//7
f 817//6 838//6 839//6
f 819//5 839//5 4//5
f 33//5 819//5 4//5
f 10//7 8//7 838//7
f 838//6 8//6 840//6
f 839//5 840//5 4//5
f 839//6 838//6 840//6
f 8//6 6//6 840//6
f 840//5 6//5 4//5
f 820//5 33//5 821//5
f 837//6 821//6 823//6
f 841//7 823//7 825//7
f 842//9 825//9 827//9
f 831//10 827//10 829//10
f 831//10 842//10 827//10
f 831//10 832//10 842//10
f 842//10 832//10 834//10
f 841//9 834//9 836//9
f 837//7 841//7 836//7
f 837//7 823//7 841//7
f 821//6 822//6 823//6
f 823//7 824//7 825//7
f 825//9 826//9 827//9
f 827//10 828//10 829//10
f 833//11 16//11 813//11
f 835//10 813//10 814//10
f 816//9 814//9 815//9
f 816//9 835//9 814//9
f 835//10 833//10 813//10
f 834//10 832//10 833//10
f 836//9 834//9 835//9
f 825//9 842//9 841//9
f 841//9 842//9 834//9
f 817//7 815//7 838//7
f 819//6 817//6 839//6
f 821//6 837//6 820//6
f 859//28 927//28 897//28
f 897//28 927//28 928//28
f 896//29 928//29 929//29
f 895//30 929//30 930//30
f 894//31 930//31 931//31
f 893//32 931//32 932//32
f 892//33 932//33 933//33
f 892//33 893//33 932//33
f 897//29 928//29 896//29
f 896//30 929//30 895//30
f 895//31 930//31 894//31
f 894//32 931//32 893//32
f 933//3 934//3 892//3
f 892//3 934//3 891//3
f 326//2 322//2 933//2
f 344//2 933//2 349//2
f 344//2 326//2 933//2
f 322//2 359//2 933//2
f 933//2 359//2 645//2
f 55//2 645//2 643//2
f 640//2 55//2 643//2
f 640//2 636//2 55//2
f 55//2 636//2 621//2
f 52//2 55//2 621//2
f 933//2 645//2 55//2
f 36//2 933//2 55//2
f 36//2 934//2 933//2
f 36//2 533//2 934//2
f 36//2 548//2 533//2
f 36//2 552//2 548//2
f 36//2 555//2 552//2
f 36//2 557//2 555//2
f 36//2 34//2 557//2
f 533//2 435//2 934//2
f 934//2 435//2 411//2
f 417//2 934//2 411//2
f 417//2 415//2 934//2
f 934//2 415//2 412//2
f 407//2 934//2 412//2
f 407//2 389//2 934//2
f 934//2 389//2 385//2
f 935//2 385//2 593//2
f 936//2 593//2 937//2
f 938//2 937//2 939//2
f 938//2 936//2 937//2
f 934//2 385//2 935//2
f 937//2 593//2 606//2
f 180//2 937//2 606//2
f 180//2 940//2 937//2
f 180//2 521//2 940//2
f 593//2 599//2 606//2
f 606//2 599//2 597//2
f 594//2 606//2 597//2
f 594//2 589//2 606//2
f 606//2 589//2 574//2
f 570//2 606//2 574//2
f 510//2 941//2 521//2
f 510//2 942//2 941//2
f 510//2 516//2 942//2
f 942//2 516//2 514//2
f 511//2 942//2 514//2
f 511//2 506//2 942//2
f 942//2 506//2 491//2
f 487//2 942//2 491//2
f 487//2 802//2 942//2
f 942//2 802//2 808//2
f 942//2 808//2 189//2
f 943//2 942//2 189//2
f 943//2 944//2 942//2
f 943//2 702//2 944//2
f 702//2 478//2 944//2
f 944//2 478//2 467//2
f 473//2 944//2 467//2
f 473//2 471//2 944//2
f 944//2 471//2 468//2
f 463//2 944//2 468//2
f 463//2 448//2 944//2
f 944//2 448//2 444//2
f 945//2 444//2 285//2
f 946//2 285//2 947//2
f 948//2 946//2 947//2
f 944//2 444//2 945//2
f 947//2 285//2 183//2
f 927//2 183//2 609//2
f 658//2 609//2 662//2
f 658//2 927//2 609//2
f 658//2 931//2 927//2
f 658//2 932//2 931//2
f 658//2 348//2 932//2
f 932//2 348//2 933//2
f 933//2 348//2 354//2
f 352//2 933//2 354//2
f 352//2 349//2 933//2
f 183//2 281//2 263//2
f 947//2 183//2 927//2
f 607//2 686//2 609//2
f 609//2 686//2 684//2
f 681//2 609//2 684//2
f 681//2 677//2 609//2
f 609//2 677//2 662//2
f 946//2 945//2 285//2
f 941//2 951//2 521//2
f 521//2 951//2 940//2
f 940//2 951//2 952//2
f 936//2 935//2 593//2
f 891//21 934//21 890//21
f 890//21 934//21 935//21
f 889//22 935//22 936//22
f 888//23 936//23 938//23
f 887//27 938//27 939//27
f 886//25 939//25 955//25
f 883//26 955//26 937//26
f 883//26 886//26 955//26
f 890//22 935//22 889//22
f 889//23 936//23 888//23
f 888//27 938//27 887//27
f 887//25 939//25 886//25
f 937//12 940//12 883//12
f 883//12 940//12 876//12
f 871//11 944//11 870//11
f 870//11 944//11 945//11
f 869//10 945//10 946//10
f 868//9 946//9 948//9
f 867//7 948//7 949//7
f 866//6 949//6 950//6
f 857//5 950//5 947//5
f 857//5 866//5 950//5
f 870//10 945//10 869//10
f 869//9 946//9 868//9
f 868//7 948//7 867//7
f 867//6 949//6 866//6
f 859//4 857//4 927//4
f 927//4 857//4 947//4
f 876//13 940//13 902//13
f 902//13 940//13 954//13
f 903//14 954//14 953//14
f 904//19 953//19 952//19
f 905//16 952//16 951//16
f 874//17 951//17 941//17
f 873//18 941//18 942//18
f 873//18 874//18 941//18
f 902//14 954//14 903//14
f 903//19 953//19 904//19
f 904//16 952//16 905//16
f 905//17 951//17 874//17
f 251//4 285//4 296//4
f 296//4 285//4 444//4
f 116//12 162//12 100//12
f 100//12 162//12 297//12
f 98//12 297//12 721//12
f 138//12 721//12 956//12
f 138//12 98//12 721//12
f 138//12 103//12 98//12
f 100//12 297//12 98//12
f 721//12 943//12 956//12
f 385//12 384//12 593//12
f 593//12 384//12 423//12
f 188//3 956//3 189//3
f 189//3 956//3 943//3
f 956//2 188//2 138//2
f 138//2 188//2 187//2
f 140//2 187//2 207//2
f 74//2 207//2 822//2
f 54//2 33//2 35//2
f 54//2 53//2 33//2
f 138//2 187//2 140//2
f 207//2 205//2 822//2
f 822//2 205//2 824//2
f 824//2 205//2 203//2
f 826//2 203//2 201//2
f 828//2 201//2 199//2
f 830//2 199//2 178//2
f 604//2 178//2 179//2
f 605//2 604//2 179//2
f 824//2 203//2 826//2
f 826//2 201//2 828//2
f 828//2 199//2 830//2
f 830//2 178//2 604//2
f 72//2 142//2 74//2
f 72//2 144//2 142//2
f 72//2 70//2 144//2
f 144//2 70//2 146//2
f 146//2 70//2 68//2
f 148//2 68//2 66//2
f 149//2 66//2 64//2
f 608//2 149//2 64//2
f 608//2 182//2 149//2
f 146//2 68//2 148//2
f 148//2 66//2 149//2
f 142//2 140//2 74//2
f 74//2 140//2 207//2
f 54//20 35//20 55//20
f 55//20 35//20 36//20
f 180//4 606//4 179//4
f 179//4 606//4 605//4
f 609//12 183//12 608//12
f 608//12 183//12 182//12
f 871//20 873//20 944//20
f 944//20 873//20 942//20
